<svg width="52" height="52" viewBox="0 0 52 52" fill="none" xmlns="http://www.w3.org/2000/svg">
<g clip-path="url(#clip0_12_333)">
<path d="M36.4 20.8H26C25.6552 20.8 25.3246 20.937 25.0808 21.1808C24.837 21.4246 24.7 21.7553 24.7 22.1C24.7 22.4448 24.837 22.7755 25.0808 23.0193C25.3246 23.2631 25.6552 23.4 26 23.4H36.4C36.7448 23.4 37.0755 23.2631 37.3193 23.0193C37.563 22.7755 37.7 22.4448 37.7 22.1C37.7 21.7553 37.563 21.4246 37.3193 21.1808C37.0755 20.937 36.7448 20.8 36.4 20.8Z" fill="white"/>
<path d="M21.5211 18.4184C21.2342 18.2272 20.8831 18.1577 20.5451 18.2253C20.207 18.2929 19.9096 18.4921 19.7184 18.7789L17.7552 21.7243L16.182 20.9371C15.8735 20.7829 15.5165 20.7576 15.1894 20.8666C14.8622 20.9756 14.5918 21.2102 14.4376 21.5186C14.2834 21.827 14.258 22.1841 14.3671 22.5112C14.4761 22.8383 14.7106 23.1087 15.0191 23.2629L17.6191 24.5629C17.9025 24.7048 18.2281 24.7382 18.5344 24.6568C18.8408 24.5754 19.1069 24.3849 19.2827 24.1211L21.8827 20.2211C21.9773 20.079 22.043 19.9197 22.0761 19.7522C22.1091 19.5847 22.1089 19.4123 22.0753 19.2449C22.0417 19.0775 21.9755 18.9183 21.8804 18.7765C21.7853 18.6347 21.6632 18.513 21.5211 18.4184Z" fill="white"/>
<path d="M36.4 29.9H26C25.6552 29.9 25.3246 30.037 25.0808 30.2808C24.837 30.5246 24.7 30.8552 24.7 31.2C24.7 31.5448 24.837 31.8755 25.0808 32.1193C25.3246 32.3631 25.6552 32.5 26 32.5H36.4C36.7448 32.5 37.0755 32.3631 37.3193 32.1193C37.563 31.8755 37.7 31.5448 37.7 31.2C37.7 30.8552 37.563 30.5246 37.3193 30.2808C37.0755 30.037 36.7448 29.9 36.4 29.9Z" fill="white"/>
<path d="M21.5211 27.5184C21.2342 27.3271 20.8831 27.2577 20.5451 27.3253C20.207 27.3929 19.9096 27.5921 19.7184 27.8789L17.7552 30.8242L16.182 30.0371C15.8735 29.8829 15.5165 29.8575 15.1894 29.9666C14.8622 30.0756 14.5918 30.3101 14.4376 30.6186C14.2834 30.927 14.258 31.284 14.3671 31.6112C14.4761 31.9383 14.7106 32.2087 15.0191 32.3629L17.6191 33.6629C17.9025 33.8047 18.2281 33.8381 18.5344 33.7568C18.8408 33.6754 19.1069 33.4849 19.2827 33.2211L21.8827 29.3211C21.9773 29.179 22.043 29.0196 22.0761 28.8521C22.1091 28.6846 22.1089 28.5123 22.0753 28.3448C22.0417 28.1774 21.9755 28.0183 21.8804 27.8765C21.7853 27.7347 21.6632 27.613 21.5211 27.5184Z" fill="white"/>
<path d="M36.4 39H26C25.6552 39 25.3246 39.137 25.0808 39.3808C24.837 39.6246 24.7 39.9552 24.7 40.3C24.7 40.6448 24.837 40.9754 25.0808 41.2192C25.3246 41.463 25.6552 41.6 26 41.6H36.4C36.7448 41.6 37.0755 41.463 37.3193 41.2192C37.563 40.9754 37.7 40.6448 37.7 40.3C37.7 39.9552 37.563 39.6246 37.3193 39.3808C37.0755 39.137 36.7448 39 36.4 39Z" fill="white"/>
<path d="M21.5211 36.6183C21.2342 36.4271 20.8831 36.3577 20.5451 36.4253C20.207 36.4929 19.9096 36.692 19.7184 36.9789L17.7552 39.9242L16.182 39.1371C16.0292 39.0607 15.863 39.0152 15.6927 39.0031C15.5224 38.991 15.3513 39.0126 15.1894 39.0666C15.0274 39.1205 14.8776 39.2059 14.7486 39.3178C14.6197 39.4297 14.514 39.5658 14.4376 39.7185C14.3613 39.8713 14.3157 40.0375 14.3036 40.2078C14.2915 40.3781 14.3131 40.5492 14.3671 40.7111C14.4211 40.8731 14.5064 41.0229 14.6183 41.1518C14.7302 41.2808 14.8663 41.3865 15.0191 41.4629L17.6191 42.7629C17.9025 42.9047 18.2281 42.9381 18.5344 42.8567C18.8408 42.7754 19.1069 42.5849 19.2827 42.3211L21.8827 38.4211C21.9773 38.279 22.043 38.1196 22.0761 37.9521C22.1091 37.7846 22.1089 37.6122 22.0753 37.4448C22.0417 37.2774 21.9755 37.1183 21.8804 36.9765C21.7853 36.8347 21.6632 36.713 21.5211 36.6183Z" fill="white"/>
<path d="M40.3 3.89995H34.4297C34.1296 3.49841 33.7405 3.172 33.2928 2.94641C32.8452 2.72083 32.3513 2.60223 31.85 2.59995H29.6735C29.4056 1.83963 28.9084 1.18118 28.2504 0.715413C27.5924 0.249646 26.8062 -0.000488281 26 -0.000488281C25.1939 -0.000488281 24.4076 0.249646 23.7496 0.715413C23.0917 1.18118 22.5944 1.83963 22.3265 2.59995H20.15C19.6487 2.60223 19.1549 2.72083 18.7072 2.94641C18.2596 3.172 17.8704 3.49841 17.5703 3.89995H11.7C9.97767 3.90504 8.32733 4.59149 7.10944 5.80937C5.89156 7.02726 5.2051 8.6776 5.20001 10.3999V45.4999C5.2051 47.2223 5.89156 48.8726 7.10944 50.0905C8.32733 51.3084 9.97767 51.9949 11.7 51.9999H40.3C42.0224 51.9949 43.6727 51.3084 44.8906 50.0905C46.1085 48.8726 46.7949 47.2223 46.8 45.4999V10.3999C46.7949 8.6776 46.1085 7.02726 44.8906 5.80937C43.6727 4.59149 42.0224 3.90504 40.3 3.89995ZM26 2.59995C26.2571 2.59995 26.5085 2.67619 26.7223 2.81903C26.936 2.96188 27.1027 3.16491 27.2011 3.40246C27.2994 3.64 27.3252 3.90139 27.275 4.15356C27.2249 4.40574 27.1011 4.63738 26.9193 4.81918C26.7374 5.00099 26.5058 5.12481 26.2536 5.17497C26.0015 5.22513 25.7401 5.19938 25.5025 5.10099C25.265 5.0026 25.0619 4.83597 24.9191 4.62219C24.7763 4.4084 24.7 4.15706 24.7 3.89995C24.7003 3.55525 24.8373 3.22474 25.0811 2.981C25.3248 2.73726 25.6553 2.60021 26 2.59995ZM19.5 5.84995C19.5024 5.67829 19.5716 5.51433 19.693 5.39294C19.8144 5.27155 19.9784 5.20231 20.15 5.19995H22.3265C22.5944 5.96026 23.0917 6.61871 23.7496 7.08448C24.4076 7.55025 25.1939 7.80038 26 7.80038C26.8062 7.80038 27.5924 7.55025 28.2504 7.08448C28.9084 6.61871 29.4056 5.96026 29.6735 5.19995H31.85C32.0217 5.20231 32.1856 5.27155 32.307 5.39294C32.4284 5.51433 32.4976 5.67829 32.5 5.84995V9.74995C32.4976 9.9216 32.4284 10.0856 32.307 10.207C32.1856 10.3283 32.0217 10.3976 31.85 10.3999H20.15C19.9784 10.3976 19.8144 10.3283 19.693 10.207C19.5716 10.0856 19.5024 9.9216 19.5 9.74995V5.84995ZM44.2 45.4999C44.1989 46.534 43.7877 47.5253 43.0565 48.2565C42.3254 48.9876 41.334 49.3989 40.3 49.3999H11.7C10.666 49.3989 9.67464 48.9876 8.94348 48.2565C8.21232 47.5253 7.80109 46.534 7.80001 45.4999V10.3999C7.80109 9.36593 8.21232 8.37458 8.94348 7.64342C9.67464 6.91226 10.666 6.50102 11.7 6.49995H16.9V9.74995C16.9024 10.6112 17.2456 11.4364 17.8546 12.0454C18.4636 12.6543 19.2888 12.9975 20.15 12.9999H31.85C32.7112 12.9975 33.5365 12.6543 34.1454 12.0454C34.7544 11.4364 35.0976 10.6112 35.1 9.74995V6.49995H40.3C41.334 6.50102 42.3254 6.91226 43.0565 7.64342C43.7877 8.37458 44.1989 9.36593 44.2 10.3999V45.4999Z" fill="white"/>
</g>
<defs>
<clipPath id="clip0_12_333">
<rect width="52" height="52" fill="white"/>
</clipPath>
</defs>
</svg>
