<svg width="26" height="26" viewBox="0 0 26 26" fill="none" xmlns="http://www.w3.org/2000/svg">
<path d="M9.15271 23.1868C8.12607 24.5017 6.82398 25.1592 5.24645 25.1592C3.69397 25.1592 2.467 24.4031 1.56556 22.891C0.66411 21.3788 0.213388 18.6833 0.213387 14.8043C0.213387 10.8925 2.16652 6.12596 6.07278 0.504747L9.45319 3.70982C8.20119 6.93134 7.41242 9.65976 7.0869 11.8951C8.16363 12.3553 9.04003 13.1771 9.71612 14.3605C10.3672 15.544 10.6927 16.9903 10.6927 18.6997C10.6927 20.3762 10.1794 21.8719 9.15271 23.1868ZM23.6885 23.1375C22.6869 24.4524 21.4099 25.1099 19.8574 25.1099C18.3049 25.1427 17.0779 24.4031 16.1765 22.891C15.275 21.3788 14.8243 18.6668 14.8243 14.755C14.8243 10.8103 16.7524 6.06021 20.6086 0.504746L24.0641 3.70982C22.737 6.79984 21.9482 9.52827 21.6978 11.8951C22.7495 12.3553 23.6009 13.1771 24.2519 14.3605C24.8779 15.5111 25.1909 16.8753 25.1909 18.4532C25.1909 18.5189 25.1909 18.9791 25.1909 19.8338C25.1909 20.7214 24.6901 21.8226 23.6885 23.1375Z" fill="#FB3F6C"/>
</svg>
