<svg width="52" height="52" viewBox="0 0 52 52" fill="none" xmlns="http://www.w3.org/2000/svg">
<path d="M30.681 49.8266C30.5977 49.6814 30.3428 49.2467 29.1738 49.2467C27.9378 49.2467 26.4235 49.7261 25.3916 50.0856C24.9716 50.2429 24.5279 50.3277 24.0795 50.3364C22.6901 50.3364 21.9802 49.3706 21.3474 48.3438C18.3544 47.3038 15.666 45.2969 13.4936 42.5943C15.4735 43.096 17.4849 43.4638 19.5142 43.6953C19.5371 43.5149 19.5769 43.337 19.633 43.1641C19.7162 42.9143 19.8353 42.6779 19.9865 42.4623C17.3683 42.1765 14.7816 41.6527 12.2586 40.8972C10.4376 38.1378 9.10406 34.8238 8.42969 31.1797C9.58852 31.5047 10.8428 31.7891 12.1672 32.04C11.8412 31.5372 11.5456 31.0365 11.2937 30.5582C10.1766 30.3164 9.14367 30.0575 8.20523 29.7751C7.82107 26.9821 7.83475 24.1488 8.24586 21.3597C7.43336 22.3428 6.9032 23.3462 6.68586 24.3314C6.66656 24.7874 6.65539 25.2454 6.65539 25.7116C6.65585 26.9235 6.72571 28.1345 6.86461 29.3384C3.76594 28.2466 1.9632 26.9476 1.9632 25.7116H1.92969C1.92965 24.7039 1.9924 23.6971 2.11758 22.6972C2.02211 21.8563 1.98352 21.059 1.95305 20.3826C1.92664 19.8342 1.89617 19.1263 1.82406 18.7241C1.75602 18.7302 1.69102 18.7322 1.62703 18.7322C1.40966 18.7353 1.19353 18.6989 0.989219 18.6246C0.334201 20.93 0.00130572 23.3149 0 25.7116C0 40.0715 11.6421 51.7116 26 51.7116C27.9659 51.7102 29.9253 51.4863 31.8409 51.0443C31.3683 50.73 30.972 50.3139 30.681 49.8266ZM4.61906 36.7718C4.17995 35.9217 3.79065 35.0467 3.45312 34.1514C3.45312 34.1403 3.45312 34.1301 3.45312 34.122H3.44398C2.73835 32.2313 2.27492 30.2588 2.06477 28.2517C3.1718 29.2196 4.90547 30.0625 7.06164 30.7735C7.59407 34.1101 8.7188 37.3247 10.3827 40.2655C7.80609 39.2875 5.7982 38.086 4.61906 36.7718ZM6.51117 39.8389C7.90156 40.6626 9.57734 41.4 11.4877 42.0124C13.5423 44.9922 16.1495 47.3261 19.1049 48.7775C14.0411 47.2575 9.61655 44.1168 6.51117 39.8379V39.8389ZM17.943 31.586C18.1878 31.6114 18.4275 31.6378 18.6753 31.6611C18.5331 29.7071 18.461 27.7154 18.459 25.7441C18.5507 25.668 18.6366 25.5852 18.7159 25.4963C19.7072 24.3039 19.5934 22.3154 19.3253 20.8579C19.2725 20.5644 19.2471 20.3826 19.237 20.2668C19.3791 20.2201 19.5802 20.1653 19.7651 20.1104C19.8138 20.0972 19.8748 20.0779 19.9266 20.0637C19.8016 21.8512 19.7346 23.7393 19.7346 25.7157C19.7346 26.7164 19.7519 27.6955 19.7864 28.6529C19.5762 29.0536 19.4498 29.493 19.4149 29.9441C19.38 30.3953 19.4373 30.8489 19.5833 31.2772C19.7894 31.8947 20.0522 32.4917 20.3684 33.0607C20.2668 33.0525 20.1652 33.0515 20.0637 33.0434C20.3582 36.2162 20.8355 39.0183 21.4256 41.3664C20.9993 41.5402 20.6114 41.7963 20.2841 42.12C19.5843 39.4205 19.0805 36.2609 18.784 32.9388C18.6347 32.9276 18.4874 32.9114 18.3371 32.8961C18.2414 32.4495 18.1096 32.0113 17.943 31.586ZM34.1758 1.02887C34.3155 1.24515 34.3751 1.50348 34.3444 1.75911C34.2804 2.33294 33.9117 2.61731 33.3734 2.80114C34.3029 3.09689 35.2129 3.45033 36.0984 3.85942C35.9123 3.98525 35.7114 4.08759 35.5002 4.16411C34.7997 3.66755 34.0646 3.2219 33.3003 2.83059C32.9193 2.93846 32.532 3.02224 32.1405 3.08145C31.9373 3.12005 31.7261 3.15458 31.523 3.19723C31.5758 3.27036 31.6184 3.36176 31.6682 3.44606C32.4426 3.77476 33.1897 4.16429 33.9026 4.61098C33.346 4.73286 32.694 4.84864 31.9729 4.94715C31.9084 5.4235 31.7499 5.88229 31.5067 6.29692C32.8433 6.14051 34.1971 5.90997 35.2767 5.57379C38.2667 7.87723 40.7012 11.2613 42.2581 15.3116C39.974 15.9586 36.8489 16.5304 33.0586 16.8675C32.6432 13.1493 31.9577 9.71145 31.0273 6.98551C30.7201 7.35265 30.3688 7.68047 29.9813 7.96153C30.7491 10.3503 31.3899 13.3972 31.7972 16.9701C29.8198 17.1174 27.6859 17.1976 25.412 17.1976H25.0809C24.6988 17.6773 24.2473 18.0973 23.7412 18.4438C24.2968 18.457 24.8584 18.4722 25.412 18.4722C27.4574 18.4722 29.6918 18.389 31.9282 18.2193C32.1486 20.536 32.2725 23.0486 32.2725 25.7167C32.2725 27.7713 32.1984 29.7345 32.0633 31.586C32.2167 31.6667 32.349 31.7823 32.4497 31.9234C32.5504 32.0645 32.6167 32.2272 32.6432 32.3985C32.7224 32.889 32.5 33.3237 31.98 33.6914L31.8693 33.7746C31.7677 34.7639 31.6479 35.7186 31.5118 36.6306C31.9297 36.8784 32.3163 37.1754 32.6635 37.5152C32.8941 36.0466 33.084 34.514 33.2241 32.9449C37.0541 32.6087 40.6677 32.0115 43.6475 31.1767C42.9752 34.8116 41.6457 38.1195 39.8318 40.8789C39.9709 41.1593 40.1152 41.4375 40.2705 41.6914C40.3589 41.8387 40.431 41.9829 40.5021 42.1261C40.5326 42.0814 40.5661 42.0408 40.5935 41.9982C42.4541 41.3989 44.0913 40.6779 45.4594 39.8826C44.1786 41.6339 42.6684 43.2052 40.9693 44.5545C40.7966 45.9459 39.8968 47.1088 39.063 48.1854C46.798 43.6861 52 35.3082 52 25.7116C52 14.2086 44.528 4.45762 34.1758 1.02887ZM36.597 5.01012C36.8558 4.86531 37.0835 4.67102 37.2673 4.43833C41.0449 6.44562 44.2225 9.41888 46.476 13.0549C46.3572 13.6328 45.3121 14.3011 43.4708 14.9318C41.925 10.8845 39.5352 7.45473 36.598 5.01012H36.597ZM33.3257 31.6561C33.4689 29.6969 33.542 27.6951 33.542 25.7116C33.542 23.1665 33.4212 20.5888 33.1866 18.1076C36.6559 17.7887 40.0451 17.2616 42.6888 16.4999C43.6624 19.4732 44.1544 22.583 44.1462 25.7116C44.1444 27.0677 44.0521 28.4222 43.8699 29.766C41.078 30.6029 37.4766 31.2813 33.3257 31.6561ZM47.317 36.8967C46.1287 38.1581 44.1787 39.3068 41.6955 40.2482C43.29 37.4675 44.4377 34.2479 45.0105 30.7623C47.122 30.0707 48.8231 29.2389 49.9322 28.2984C49.6125 31.3042 48.725 34.2219 47.317 36.8967ZM45.2085 29.3293C45.3483 28.1284 45.4185 26.9205 45.4188 25.7116C45.4271 22.4532 44.9128 19.2145 43.8953 16.119C45.3873 15.597 46.5359 14.9825 47.188 14.2777C49.0859 17.7895 50.0766 21.7197 50.0703 25.7116C50.0703 25.7969 50.0703 25.8812 50.0622 25.9686C49.8377 27.1243 48.0848 28.3167 45.2085 29.3293ZM25.4495 32.9276C25.608 32.6686 25.8436 32.2837 26.066 31.979H26.0873C26.0711 32.1822 26.0447 32.3904 26.0254 32.5529C25.997 32.7824 25.9716 33.017 25.9502 33.2526C25.7207 33.2526 25.4891 33.2414 25.2555 33.2414C25.3216 33.1368 25.3855 33.0343 25.4495 32.9276ZM1.29289 17.615C0.988203 17.4048 1.31727 16.8097 1.43711 16.3008C3.93051 10.3672 8.52551 5.56209 14.3418 2.8061C20.1582 0.0501084 26.7869 -0.46301 32.958 1.36505C34.2784 1.9277 31.5605 1.97442 30.3499 2.42739C30.0005 2.5584 29.8645 2.67825 29.8523 2.80215C29.8228 3.11497 30.5723 3.45926 30.8598 4.10419C30.9776 4.37231 30.9837 4.71356 30.8882 5.08223C30.7318 5.67942 30.2981 6.35176 29.6207 6.9195C29.2842 7.20169 28.9137 7.44054 28.5177 7.63044C26.6398 8.52317 27.9764 8.52723 28.2608 10.0425C28.5452 11.5579 25.7644 11.7376 25.5399 9.77544C25.3155 7.81325 22.7693 9.20973 24.3364 11.1049C25.6303 12.672 25.6811 15.3868 23.6712 17.1783C23.2078 17.5869 22.684 17.9213 22.1183 18.1696C21.9517 18.2447 21.7963 18.3087 21.642 18.3727C21.111 18.5941 20.5685 18.787 20.017 18.9506C19.4279 19.1283 19.0013 19.2309 18.7139 19.3568C18.1624 19.5925 18.0934 19.9215 18.3077 21.0479C18.7281 23.3208 18.4458 25.5623 16.5019 25.3287C14.558 25.0951 13.6835 22.5611 13.3758 24.1343C13.068 25.7075 15.9027 26.2306 16.5313 27.9988C17.1316 29.6878 15.9809 29.1871 16.7954 31.4621C16.834 31.5707 16.8726 31.6804 16.9213 31.8023C17.0511 32.125 17.161 32.4554 17.2504 32.7915C17.7338 34.6278 16.9904 35.0838 16.4602 35.1589C16.0875 35.2107 14.7905 33.9402 13.5931 32.2989C13.2529 31.8318 12.9248 31.3361 12.6232 30.8324C12.2492 30.2189 11.931 29.5731 11.6726 28.9027C10.6092 26.0346 13.6906 27.8282 12.1611 25.086C10.6316 22.3438 12.74 21.6004 11.9082 20.6101C11.1577 19.7174 10.0303 18.5118 8.56172 19.5681C8.38625 19.6948 8.22212 19.8365 8.07117 19.9916C7.67074 20.4033 7.30203 20.8446 6.9682 21.3119C6.00234 22.6627 5.52703 24.0368 5.52703 25.3409C5.52703 27.0675 3.86445 26.8034 3.29266 23.5839C2.97172 21.7862 3.02352 20.0769 2.90367 18.9536C2.8082 18.0629 2.59898 17.5409 2.01398 17.6496C1.63414 17.7217 1.41477 17.6983 1.29289 17.615ZM39.5759 45.5833C39.0599 46.6386 38.1042 47.6389 37.2673 48.8607C37.1546 49.0212 37.0368 49.1654 36.917 49.3086C35.9247 50.439 34.5973 50.8432 33.4638 50.6188C33.0733 50.5461 32.7029 50.3907 32.3774 50.1629C32.0519 49.9352 31.7789 49.6404 31.5768 49.2985C31.3321 48.8879 30.9495 48.5776 30.4972 48.423C30.0981 48.2813 29.6775 48.2102 29.2541 48.2128C28.6462 48.2145 28.0403 48.2826 27.4473 48.4159C26.742 48.5693 26.0464 48.7643 25.3642 48.9999C25.2566 49.0344 25.1509 49.071 25.0494 49.1075C24.0246 49.463 23.4457 49.3005 22.9562 48.8029C22.4666 48.3052 22.0817 47.5008 21.4439 46.538C20.7685 45.5224 20.4395 44.5809 20.5471 43.8151C20.6345 43.2057 20.995 42.7061 21.6897 42.3739C21.7912 42.3272 21.8928 42.2836 22.0137 42.2429C23.917 41.5625 24.248 41.6457 25.0453 40.2269C25.8426 38.8081 26.2082 37.6279 28.2232 37.2237C29.7385 36.919 30.6343 37.2471 31.328 37.7488C31.7423 38.0535 32.0897 38.414 32.4512 38.7441C32.6746 38.9563 32.9193 39.1449 33.1815 39.3068C34.58 40.1416 34.4094 37.0338 35.8059 36.3929C37.0246 35.8303 37.6055 38.6476 38.8162 41.1775C38.9868 41.5371 39.1706 41.8885 39.3717 42.2247C39.539 42.502 39.6753 42.797 39.778 43.1042C40.0918 44.0254 39.9537 44.8186 39.5759 45.5833ZM25.7471 22.354C25.5673 21.0783 26.0843 20.211 26.6419 20.5004C27.1995 20.7899 27.0126 22.0239 28.8955 24.1008C30.7785 26.1778 28.8955 27.4676 29.1718 30.155C29.2663 31.0599 29.6725 31.5677 30.1265 31.8815C31.0213 32.4909 32.1049 32.3294 31.3757 32.8474C31.2741 32.9154 31.1726 32.9997 31.0568 33.0932C29.9193 34.0225 28.1673 35.878 27.2919 34.9873C26.9283 34.6186 26.9242 33.9534 26.9933 33.2425C27.0349 32.8139 27.1009 32.3751 27.1314 31.977C27.1852 31.2661 27.1314 30.6861 26.6236 30.5236C25.9624 30.3154 25.3795 31.0954 24.8259 31.977C24.5568 32.4025 24.2937 32.8504 24.0337 33.2232C23.7941 33.5675 23.5564 33.8488 23.3127 33.9829C22.7642 34.2875 22.163 33.8397 21.648 33.1307C21.358 32.7225 21.1093 32.2863 20.9056 31.8287C20.7794 31.5465 20.6686 31.2576 20.5735 30.9634C19.8118 28.5939 22.5672 27.2188 24.9295 26.5302C27.2919 25.8416 25.9238 23.6286 25.7471 22.354Z" fill="white"/>
</svg>
