<svg width="52" height="52" viewBox="0 0 52 52" fill="none" xmlns="http://www.w3.org/2000/svg">
<g clip-path="url(#clip0_12_328)">
<path d="M14.6666 32.6666C14.6666 32.2711 14.7839 31.8845 15.0037 31.5556C15.2234 31.2268 15.5357 30.9704 15.9011 30.8191C16.2665 30.6677 16.6686 30.6281 17.0565 30.7053C17.4445 30.7824 17.8008 30.9729 18.0805 31.2526C18.3601 31.5322 18.5506 31.8886 18.6277 32.2765C18.7049 32.6644 18.6653 33.0665 18.5139 33.4319C18.3626 33.7973 18.1063 34.1096 17.7774 34.3294C17.4486 34.5491 17.0619 34.6664 16.6664 34.6664C16.1362 34.6658 15.6279 34.455 15.253 34.0801C14.878 33.7052 14.6672 33.1968 14.6666 32.6666ZM16.6664 35.9999C14.5702 35.9999 12.7055 37.2705 12.0331 39.1615C12.0026 39.2489 11.9939 39.3424 12.0077 39.4339C12.0215 39.5254 12.0574 39.6121 12.1123 39.6866C12.1835 39.7846 12.277 39.8641 12.3851 39.9185C12.4933 39.9729 12.6129 40.0007 12.7339 39.9994H20.5999C20.721 40.0007 20.8406 39.9729 20.9487 39.9185C21.0568 39.8641 21.1503 39.7846 21.2215 39.6866C21.2765 39.6122 21.3125 39.5254 21.3263 39.4339C21.3401 39.3424 21.3313 39.2489 21.3007 39.1615C20.6243 37.2735 18.7627 35.9999 16.6664 35.9999ZM39.977 12.9655L28.9067 24.0358C30.8563 26.1405 32.2278 28.714 32.8878 31.506C33.5477 34.2979 33.4736 37.2131 32.6727 39.968L37.9539 41.726C38.7246 39.9464 40.1522 38.5329 41.9393 37.7797C43.7263 37.0266 45.7351 36.992 47.547 37.6831C49.359 38.3742 50.8344 39.7377 51.666 41.4897C52.4976 43.2416 52.6212 45.2468 52.011 47.0876C51.4009 48.9284 50.104 50.4628 48.3906 51.3712C46.6773 52.2796 44.6795 52.4919 42.8135 51.9639C40.9474 51.4359 39.3571 50.2083 38.3737 48.5369C37.3903 46.8655 37.0897 44.879 37.5345 42.9915L32.2532 41.2324C29.8594 47.5191 23.7798 52.0001 16.6664 52.0001C7.47602 52.0001 0 44.523 0 35.3337C0 28.2243 4.48094 22.1366 10.7656 19.7489L9.00656 14.4676C7.17233 14.8943 5.24421 14.5975 3.62321 13.6389C2.00222 12.6804 0.813112 11.1338 0.303205 9.32098C-0.206702 7.50812 0.00183623 5.56847 0.885449 3.90543C1.76906 2.24239 3.25974 0.983967 5.04745 0.391887C6.83516 -0.200194 8.7823 -0.0803618 10.4839 0.726462C12.1855 1.53329 13.5107 2.965 14.1837 4.72384C14.8567 6.48267 14.8258 8.43326 14.0975 10.1699C13.3691 11.9066 11.9994 13.2956 10.273 14.0482L12.0311 19.3294C14.7858 18.5287 17.7008 18.4547 20.4925 19.1146C23.2843 19.7746 25.8576 21.146 27.9622 23.0954L39.0325 12.0251C37.8225 10.5725 37.2191 8.70932 37.3478 6.82318C37.4765 4.93703 38.3274 3.17311 39.7236 1.89838C41.1197 0.623656 42.9535 -0.0637423 44.8436 -0.0208085C46.7336 0.0221253 48.5344 0.792085 49.8712 2.1289C51.208 3.46571 51.9779 5.26644 52.0209 7.15649C52.0638 9.04653 51.3764 10.8804 50.1017 12.2765C48.8269 13.6726 47.063 14.5236 45.1769 14.6523C43.2907 14.781 41.4276 14.1776 39.975 12.9676L39.977 12.9655ZM22.555 38.7126C22.2518 37.8828 21.7721 37.1287 21.1488 36.5025C20.5256 35.8763 19.7738 35.393 18.9455 35.0858C19.4332 34.6287 19.7721 34.0355 19.9184 33.3833C20.0647 32.731 20.0115 32.0499 19.7657 31.4283C19.5199 30.8066 19.0929 30.2733 18.5401 29.8974C17.9873 29.5216 17.3343 29.3206 16.6659 29.3206C15.9975 29.3206 15.3445 29.5216 14.7917 29.8974C14.2389 30.2733 13.8119 30.8066 13.5661 31.4283C13.3203 32.0499 13.2671 32.731 13.4134 33.3833C13.5597 34.0355 13.8986 34.6287 14.3863 35.0858C13.558 35.393 12.8062 35.8763 12.183 36.5025C11.5597 37.1287 11.08 37.8828 10.7768 38.7126C10.673 39.001 10.641 39.3102 10.6835 39.6137C10.7259 39.9171 10.8416 40.2057 11.0205 40.4544C11.2145 40.728 11.4714 40.9509 11.7696 41.1043C12.0678 41.2577 12.3986 41.3372 12.7339 41.336H20.5999C20.9347 41.3372 21.2648 41.2581 21.5626 41.1052C21.8604 40.9523 22.1171 40.7302 22.3112 40.4575C22.4907 40.2084 22.6066 39.9193 22.6491 39.6152C22.6916 39.3112 22.6593 39.0014 22.555 38.7126Z" fill="white"/>
</g>
<defs>
<clipPath id="clip0_12_328">
<rect width="52" height="52" fill="white"/>
</clipPath>
</defs>
</svg>
