<svg width="60" height="60" viewBox="0 0 60 60" fill="none" xmlns="http://www.w3.org/2000/svg">
<g clip-path="url(#clip0_6_139)">
<path d="M51.3236 47.8335C27.5741 59.0619 12.835 49.6674 3.39996 43.9614C2.81613 43.6018 1.82381 44.0455 2.68478 45.0279C5.82805 48.8141 16.1292 57.94 29.5752 57.94C43.0305 57.94 51.0351 50.6465 52.0365 49.3742C53.0311 48.1126 52.3285 47.4167 51.3233 47.8335H51.3236ZM57.9935 44.1742C57.3558 43.3491 54.1155 43.1953 52.0762 43.4442C50.0338 43.6859 46.9682 44.9259 47.2347 45.6705C47.3715 45.9494 47.6506 45.8243 49.0537 45.6989C50.4606 45.5595 54.4018 45.0654 55.2231 46.1319C56.0482 47.2057 53.9661 52.3214 53.5858 53.1465C53.2184 53.9715 53.7262 54.1843 54.4163 53.6348C55.0969 53.0855 56.3291 51.663 57.156 49.6499C57.9773 47.6259 58.4781 44.8024 57.9933 44.1742H57.9935Z" fill="#FF9900"/>
<path fill-rule="evenodd" clip-rule="evenodd" d="M35.3547 24.9221C35.3547 27.8682 35.4296 30.3252 33.9306 32.9415C32.7208 35.0689 30.8043 36.3771 28.663 36.3771C25.74 36.3771 24.0377 34.1648 24.0377 30.8996C24.0377 24.454 29.8512 23.2841 35.3547 23.2841V24.9221ZM43.0312 43.3545C42.5279 43.8011 41.7999 43.8332 41.2325 43.5352C38.7058 41.4506 38.256 40.4828 36.8643 38.4937C32.6887 42.727 29.7337 43.9926 24.3162 43.9926C17.9137 43.9926 12.9243 40.0678 12.9243 32.2078C12.9243 26.0709 16.2757 21.8907 21.0398 19.8488C25.1727 18.0404 30.9435 17.7214 35.3547 17.2217V16.243C35.3547 14.4455 35.4937 12.3183 34.4339 10.7655C33.5023 9.37214 31.7251 8.79776 30.1618 8.79776C27.2604 8.79776 24.6694 10.2761 24.0377 13.3393C23.9091 14.0202 23.406 14.6903 22.7209 14.7221L15.3332 13.9352C14.7124 13.7966 14.0272 13.2969 14.1985 12.3501C15.9008 3.45855 23.984 0.778076 31.2216 0.778076C34.9261 0.778076 39.7654 1.75669 42.6884 4.54343C46.3929 7.97877 46.0395 12.5629 46.0395 17.5512V29.336C46.0395 32.8779 47.517 34.4306 48.9088 36.3453C49.4012 37.0259 49.5084 37.8451 48.8874 38.3554C47.3349 39.6423 44.5726 42.0356 43.0524 43.3758L43.031 43.3545" fill="black"/>
<path d="M51.3236 47.8335C27.5741 59.0619 12.835 49.6674 3.39996 43.9614C2.81613 43.6018 1.82381 44.0455 2.68478 45.0279C5.82805 48.8141 16.1292 57.94 29.5752 57.94C43.0305 57.94 51.0351 50.6465 52.0365 49.3742C53.0311 48.1126 52.3285 47.4167 51.3233 47.8335H51.3236ZM57.9935 44.1742C57.3558 43.3491 54.1155 43.1953 52.0762 43.4442C50.0338 43.6859 46.9682 44.9259 47.2347 45.6705C47.3715 45.9494 47.6506 45.8243 49.0537 45.6989C50.4606 45.5595 54.4018 45.0654 55.2231 46.1319C56.0482 47.2057 53.9661 52.3214 53.5858 53.1465C53.2184 53.9715 53.7262 54.1843 54.4163 53.6348C55.0969 53.0855 56.3291 51.663 57.156 49.6499C57.9773 47.6259 58.4781 44.8024 57.9933 44.1742H57.9935Z" fill="#FF9900"/>
<path fill-rule="evenodd" clip-rule="evenodd" d="M35.3547 24.9221C35.3547 27.8682 35.4296 30.3252 33.9306 32.9415C32.7208 35.0689 30.8043 36.3771 28.663 36.3771C25.74 36.3771 24.0377 34.1648 24.0377 30.8996C24.0377 24.454 29.8512 23.2841 35.3547 23.2841V24.9221ZM43.0312 43.3545C42.5279 43.8011 41.7999 43.8332 41.2325 43.5352C38.7058 41.4506 38.256 40.4828 36.8643 38.4937C32.6887 42.727 29.7337 43.9926 24.3162 43.9926C17.9137 43.9926 12.9243 40.0678 12.9243 32.2078C12.9243 26.0709 16.2757 21.8907 21.0398 19.8488C25.1727 18.0404 30.9435 17.7214 35.3547 17.2217V16.243C35.3547 14.4455 35.4937 12.3183 34.4339 10.7655C33.5023 9.37214 31.7251 8.79776 30.1618 8.79776C27.2604 8.79776 24.6694 10.2761 24.0377 13.3393C23.9091 14.0202 23.406 14.6903 22.7209 14.7221L15.3332 13.9352C14.7124 13.7966 14.0272 13.2969 14.1985 12.3501C15.9008 3.45855 23.984 0.778076 31.2216 0.778076C34.9261 0.778076 39.7654 1.75669 42.6884 4.54343C46.3929 7.97877 46.0395 12.5629 46.0395 17.5512V29.336C46.0395 32.8779 47.517 34.4306 48.9088 36.3453C49.4012 37.0259 49.5084 37.8451 48.8874 38.3554C47.3349 39.6423 44.5726 42.0356 43.0524 43.3758L43.031 43.3545" fill="white"/>
</g>
<defs>
<clipPath id="clip0_6_139">
<rect width="58.6698" height="58.2838" fill="white" transform="translate(0.81604 0.778076)"/>
</clipPath>
</defs>
</svg>
