<svg width="16" height="17" viewBox="0 0 16 17" fill="none" xmlns="http://www.w3.org/2000/svg">
<g clip-path="url(#clip0_15_157)">
<path d="M8.00192 1.58936C4.1363 1.58936 1.00193 4.60618 1.00193 8.32682C1.00193 12.0475 4.1363 15.0643 8.00192 15.0643C11.8675 15.0643 15.0019 12.0475 15.0019 8.32682C15.0019 4.60618 11.8675 1.58936 8.00192 1.58936ZM8.00192 13.9213C4.79255 13.9213 2.18943 11.4158 2.18943 8.32682C2.18943 5.23782 4.79255 2.73232 8.00192 2.73232C11.2113 2.73232 13.8144 5.23782 13.8144 8.32682C13.8144 11.4158 11.2113 13.9213 8.00192 13.9213ZM8.08942 5.91006C8.91755 5.91006 9.48005 6.41838 9.54255 7.16431C9.54723 7.22747 9.60192 7.2756 9.66755 7.2756H10.5535C10.5941 7.2756 10.6269 7.24402 10.6269 7.20492C10.6269 5.90103 9.55817 4.98817 8.08474 4.98817C6.36755 4.98817 5.37692 6.10406 5.37692 7.94784V8.73438C5.37692 10.5646 6.36755 11.6655 8.08474 11.6655C9.55348 11.6655 10.6269 10.7812 10.6269 9.53897C10.6269 9.49987 10.5941 9.46828 10.5535 9.46828H9.66598C9.60036 9.46828 9.54723 9.51641 9.54098 9.57807C9.47536 10.2714 8.91442 10.7481 8.08786 10.7481C7.06755 10.7481 6.49255 10.0277 6.49255 8.73889V7.94784C6.49411 6.63945 7.07067 5.91006 8.08942 5.91006V5.91006Z" fill="white"/>
</g>
<defs>
<clipPath id="clip0_15_157">
<rect width="16" height="15.3999" fill="white" transform="translate(-0.000213623 0.625)"/>
</clipPath>
</defs>
</svg>
