<svg width="25" height="25" viewBox="0 0 25 25" fill="none" xmlns="http://www.w3.org/2000/svg">
<path d="M20.3528 11.7292H22.3528C22.3528 6.59922 18.4798 2.73022 13.3428 2.73022V4.73022C17.4048 4.73022 20.3528 7.67322 20.3528 11.7292Z" fill="white"/>
<path d="M13.3528 8.73022C15.4558 8.73022 16.3528 9.62722 16.3528 11.7302H18.3528C18.3528 8.50522 16.5778 6.73022 13.3528 6.73022V8.73022ZM16.7748 14.1732C16.5827 13.9986 16.3302 13.9054 16.0706 13.9135C15.8111 13.9215 15.5648 14.03 15.3838 14.2162L12.9908 16.6772C12.4148 16.5672 11.2568 16.2062 10.0648 15.0172C8.87284 13.8242 8.51184 12.6632 8.40484 12.0912L10.8638 9.69722C11.0503 9.51635 11.159 9.27004 11.167 9.01043C11.175 8.75081 11.0817 8.49826 10.9068 8.30622L7.21184 4.24322C7.03689 4.05058 6.79372 3.93372 6.534 3.91748C6.27427 3.90123 6.01844 3.98688 5.82084 4.15622L3.65084 6.01722C3.47796 6.19073 3.37476 6.42167 3.36084 6.66622C3.34584 6.91622 3.05984 12.8382 7.65184 17.4322C11.6578 21.4372 16.6758 21.7302 18.0578 21.7302C18.2598 21.7302 18.3838 21.7242 18.4168 21.7222C18.6614 21.7085 18.8922 21.6049 19.0648 21.4312L20.9248 19.2602C21.0943 19.0627 21.1801 18.807 21.1641 18.5473C21.148 18.2875 21.0313 18.0443 20.8388 17.8692L16.7748 14.1732V14.1732Z" fill="white"/>
</svg>
