<svg width="25" height="25" viewBox="0 0 25 25" fill="none" xmlns="http://www.w3.org/2000/svg">
<path d="M12.3528 2.23022C10.1656 2.2328 8.06868 3.10283 6.52206 4.64944C4.97545 6.19606 4.10542 8.29298 4.10284 10.4802C4.10022 12.2676 4.68408 14.0066 5.76484 15.4302C5.76484 15.4302 5.98984 15.7265 6.02659 15.7692L12.3528 23.2302L18.6821 15.7655C18.7151 15.7257 18.9408 15.4302 18.9408 15.4302L18.9416 15.428C20.0218 14.0049 20.6054 12.2668 20.6028 10.4802C20.6003 8.29298 19.7302 6.19606 18.1836 4.64944C16.637 3.10283 14.5401 2.2328 12.3528 2.23022V2.23022ZM12.3528 13.4802C11.7595 13.4802 11.1795 13.3043 10.6861 12.9746C10.1928 12.645 9.80827 12.1765 9.5812 11.6283C9.35414 11.0801 9.29473 10.4769 9.41049 9.89495C9.52624 9.31301 9.81197 8.77846 10.2315 8.3589C10.6511 7.93935 11.1856 7.65362 11.7676 7.53787C12.3495 7.42211 12.9527 7.48152 13.5009 7.70859C14.0491 7.93565 14.5176 8.32017 14.8473 8.81351C15.1769 9.30686 15.3528 9.88688 15.3528 10.4802C15.3519 11.2756 15.0355 12.0381 14.4731 12.6004C13.9107 13.1628 13.1482 13.4792 12.3528 13.4802V13.4802Z" fill="white"/>
</svg>
