<svg width="50" height="47" viewBox="0 0 50 47" fill="none" xmlns="http://www.w3.org/2000/svg">
<path d="M10.0125 15.0285H39.9875L25 30.6885L10.0125 15.0285ZM7.65938 16.9114L22.6469 32.5685C22.9402 32.8754 23.3019 33.1214 23.7078 33.2899C24.1137 33.4584 24.5543 33.5456 25 33.5456C25.4458 33.5456 25.8864 33.4584 26.2922 33.2899C26.6981 33.1214 27.0598 32.8754 27.3531 32.5685L42.3406 16.9114C44.1094 15.0628 42.6719 12.1714 39.9875 12.1714H10.0125C9.41174 12.1709 8.82357 12.3288 8.31841 12.6261C7.81325 12.9234 7.41253 13.3475 7.16423 13.8477C6.91593 14.3478 6.83058 14.9028 6.9184 15.4462C7.00621 15.9896 7.26348 16.4983 7.65938 16.9114Z" fill="white"/>
</svg>
