<svg width="50" height="47" viewBox="0 0 50 47" fill="none" xmlns="http://www.w3.org/2000/svg">
<path d="M10.0125 14.9428H39.9875L25 30.6028L10.0125 14.9428ZM7.65938 16.8257L22.6469 32.4828C22.9402 32.7897 23.3019 33.0357 23.7078 33.2042C24.1137 33.3727 24.5543 33.4599 25 33.4599C25.4458 33.4599 25.8864 33.3727 26.2922 33.2042C26.6981 33.0357 27.0598 32.7897 27.3531 32.4828L42.3406 16.8257C44.1094 14.9771 42.6719 12.0857 39.9875 12.0857H10.0125C9.41174 12.0852 8.82357 12.2431 8.31841 12.5404C7.81325 12.8377 7.41253 13.2618 7.16423 13.762C6.91593 14.2621 6.83058 14.8171 6.9184 15.3605C7.00621 15.9039 7.26348 16.4126 7.65938 16.8257Z" fill="white"/>
</svg>
