<svg width="50" height="46" viewBox="0 0 50 46" fill="none" xmlns="http://www.w3.org/2000/svg">
<path d="M10.0125 14.4001H39.9875L25 30.0601L10.0125 14.4001ZM7.65938 16.283L22.6469 31.9401C22.9402 32.247 23.3019 32.493 23.7078 32.6615C24.1137 32.83 24.5543 32.9172 25 32.9172C25.4458 32.9172 25.8864 32.83 26.2922 32.6615C26.6981 32.493 27.0598 32.247 27.3531 31.9401L42.3406 16.283C44.1094 14.4344 42.6719 11.543 39.9875 11.543H10.0125C9.41174 11.5425 8.82357 11.7004 8.31841 11.9977C7.81325 12.295 7.41253 12.7191 7.16423 13.2192C6.91593 13.7194 6.83058 14.2744 6.9184 14.8178C7.00621 15.3611 7.26348 15.8698 7.65938 16.283Z" fill="white"/>
</svg>
