<svg width="50" height="47" viewBox="0 0 50 47" fill="none" xmlns="http://www.w3.org/2000/svg">
<path d="M10.0125 14.8571H39.9875L25 30.5171L10.0125 14.8571ZM7.65938 16.74L22.6469 32.3971C22.9402 32.704 23.3019 32.95 23.7078 33.1185C24.1137 33.287 24.5543 33.3742 25 33.3742C25.4458 33.3742 25.8864 33.287 26.2922 33.1185C26.6981 32.95 27.0598 32.704 27.3531 32.3971L42.3406 16.74C44.1094 14.8914 42.6719 12 39.9875 12H10.0125C9.41174 11.9995 8.82357 12.1574 8.31841 12.4547C7.81325 12.752 7.41253 13.1761 7.16423 13.6763C6.91593 14.1764 6.83058 14.7314 6.9184 15.2748C7.00621 15.8182 7.26348 16.3269 7.65938 16.74Z" fill="white"/>
</svg>
