<svg width="59" height="27" viewBox="0 0 59 27" fill="none" xmlns="http://www.w3.org/2000/svg">
<g clip-path="url(#clip0_6_217)">
<path d="M40.2266 26.0882L40.5252 25.0625C40.8811 23.8423 40.7487 22.7144 40.1517 21.8857C39.6021 21.1224 38.6865 20.6728 37.5745 20.6206L16.513 20.3558C16.4476 20.3546 16.3835 20.338 16.3258 20.3076C16.268 20.2771 16.2184 20.2336 16.1807 20.1806C16.1439 20.1257 16.1204 20.0631 16.1121 19.9977C16.1039 19.9323 16.1112 19.8658 16.1334 19.8037C16.1695 19.7012 16.2351 19.6114 16.322 19.5456C16.4091 19.4797 16.5134 19.4405 16.6226 19.4329L37.8792 19.1653C40.4008 19.0503 43.1308 17.0193 44.0866 14.5425L45.2988 11.3981C45.3485 11.2652 45.3599 11.1211 45.3317 10.9821C43.9553 4.83616 38.4297 0.240234 31.8232 0.240234C25.7361 0.240234 20.5677 4.14031 18.7138 9.56118C17.4611 8.62775 15.8991 8.19865 14.3412 8.35979C11.4209 8.64766 9.0729 10.9816 8.78381 13.881C8.70971 14.605 8.76392 15.3363 8.94439 16.0416C4.17387 16.1797 0.348145 20.0595 0.348145 24.8287C0.348754 25.2545 0.380419 25.6796 0.442946 26.1009C0.456751 26.1981 0.505272 26.2872 0.579777 26.352C0.654282 26.4167 0.749901 26.4526 0.848767 26.4532L39.732 26.458C39.7357 26.4582 39.7393 26.4582 39.743 26.458C39.853 26.456 39.9594 26.4191 40.0465 26.3526C40.1336 26.2858 40.1967 26.1932 40.2266 26.0882Z" fill="#F6821F"/>
<path d="M47.2428 11.6262C47.0477 11.6262 46.8532 11.631 46.6595 11.6408C46.6283 11.643 46.5976 11.6497 46.5684 11.6606C46.5176 11.6778 46.4718 11.707 46.4348 11.7456C46.3979 11.7843 46.3709 11.8312 46.3563 11.8825L45.5282 14.722C45.1721 15.9422 45.3045 17.0692 45.9021 17.8979C46.4513 18.6621 47.3668 19.1106 48.4787 19.1629L52.9687 19.4305C53.0318 19.4326 53.0935 19.4493 53.1492 19.4792C53.2046 19.5091 53.2523 19.5515 53.2884 19.603C53.3258 19.6581 53.3495 19.7211 53.3577 19.787C53.366 19.8529 53.3585 19.9197 53.3359 19.9822C53.2998 20.0845 53.2342 20.1741 53.1475 20.24C53.0609 20.3058 52.9565 20.3451 52.8477 20.353L48.1825 20.6206C45.6496 20.7366 42.9201 22.7666 41.9651 25.2434L41.6282 26.1178C41.6141 26.1543 41.6089 26.1937 41.6131 26.2326C41.6174 26.2715 41.6308 26.309 41.6525 26.3417C41.6742 26.3744 41.7033 26.4016 41.7376 26.421C41.7719 26.4401 41.8105 26.4512 41.8498 26.4528C41.8541 26.4528 41.858 26.4528 41.8622 26.4528H57.9146C58.008 26.4536 58.0989 26.4242 58.1739 26.3687C58.2486 26.3133 58.3032 26.2352 58.329 26.1461C58.6134 25.1387 58.7571 24.0975 58.7561 23.0512C58.7543 16.7418 53.6003 11.6262 47.2428 11.6262Z" fill="#FBAD41"/>
</g>
<defs>
<clipPath id="clip0_6_217">
<rect width="58.6698" height="26.4193" fill="white" transform="translate(0.165039 0.240234)"/>
</clipPath>
</defs>
</svg>
