<svg width="148" height="493" viewBox="0 0 148 493" fill="none" xmlns="http://www.w3.org/2000/svg">
<path d="M138.445 69.5C138.445 107.608 107.552 138.5 69.4445 138.5C31.3369 138.5 0.44455 107.608 0.44455 69.5C0.44455 31.3924 31.3369 0.5 69.4445 0.5C107.552 0.5 138.445 31.3924 138.445 69.5Z" fill="#484848" fill-opacity="0.5"/>
<path d="M147.5 423.5C147.5 461.607 116.608 492.5 78.5 492.5C40.3923 492.5 9.49997 461.607 9.49997 423.5C9.49997 385.392 40.3923 354.5 78.5 354.5C116.608 354.5 147.5 385.392 147.5 423.5Z" fill="#484848" fill-opacity="0.5"/>
<path d="M138.445 69.5C138.445 107.608 107.552 138.5 69.4445 138.5C31.3369 138.5 0.44455 107.608 0.44455 69.5C0.44455 31.3924 31.3369 0.5 69.4445 0.5C107.552 0.5 138.445 31.3924 138.445 69.5Z" fill="#484848" fill-opacity="0.5"/>
<path d="M147.5 130C147.5 168.108 116.608 199 78.5 199C40.3923 199 9.49997 168.108 9.49997 130C9.49997 91.8924 40.3923 61 78.5 61C116.608 61 147.5 91.8924 147.5 130Z" fill="#484848" fill-opacity="0.5"/>
<path d="M147.5 130C147.5 168.108 116.608 199 78.5 199C40.3923 199 9.49997 168.108 9.49997 130C9.49997 91.8924 40.3923 61 78.5 61C116.608 61 147.5 91.8924 147.5 130Z" fill="#484848" fill-opacity="0.5"/>
</svg>
