<svg width="59" height="60" viewBox="0 0 59 60" fill="none" xmlns="http://www.w3.org/2000/svg">
<g clip-path="url(#clip0_6_120)">
<path d="M29.4906 59.1763C45.6918 59.1763 58.8255 46.129 58.8255 30.0344C58.8255 13.9398 45.6918 0.892517 29.4906 0.892517C13.2894 0.892517 0.15567 13.9398 0.15567 30.0344C0.15567 46.129 13.2894 59.1763 29.4906 59.1763Z" fill="#3C5A9A"/>
<path d="M39.029 9.83746H32.5306C28.6743 9.83746 24.3849 11.4487 24.3849 17.0019C24.4037 18.9369 24.3849 20.79 24.3849 22.8755H19.9236V29.928H24.5229V50.2311H32.9745V29.7941H38.5528L39.0575 22.8557H32.8289C32.8289 22.8557 32.8428 19.7693 32.8289 18.8729C32.8289 16.6784 35.1274 16.8041 35.2657 16.8041C36.3595 16.8041 38.4863 16.8073 39.0322 16.8041V9.83746H39.029V9.83746Z" fill="white"/>
</g>
<defs>
<clipPath id="clip0_6_120">
<rect width="58.6698" height="58.2838" fill="white" transform="translate(0.15564 0.892456)"/>
</clipPath>
</defs>
</svg>
