<svg width="58" height="60" viewBox="0 0 58 60" fill="none" xmlns="http://www.w3.org/2000/svg">
<g clip-path="url(#clip0_6_163)">
<path d="M57.5415 30.7311C57.5415 28.7672 57.3502 26.7399 57.0314 24.8394H29.4183V36.0526H45.2336C44.5959 39.6637 42.4914 42.8313 39.3666 44.8586L48.8048 52.144C54.3529 47.0125 57.5415 39.537 57.5415 30.7311Z" fill="#4280EF"/>
<path d="M29.4183 59.1128C37.326 59.1128 43.9582 56.5154 48.8049 52.0807L39.3667 44.8586C36.752 46.6325 33.3721 47.6461 29.4183 47.6461C21.7657 47.6461 15.3248 42.5146 12.9652 35.6726L3.27197 43.0848C8.24615 52.9043 18.3221 59.1128 29.4183 59.1128Z" fill="#34A353"/>
<path d="M12.9652 35.6092C11.7536 31.9982 11.7536 28.0703 12.9652 24.4593L3.27195 16.9838C-0.873202 25.2195 -0.873202 34.9124 3.27195 43.0848L12.9652 35.6092Z" fill="#F6B704"/>
<path d="M29.4183 12.4858C33.5635 12.4225 37.6448 14.0063 40.6421 16.8571L48.9962 8.49464C43.7031 3.55318 36.6883 0.892405 29.4183 0.955757C18.3221 0.955757 8.24615 7.16424 3.27197 16.9838L12.9652 24.4593C15.3248 17.554 21.7657 12.4858 29.4183 12.4858Z" fill="#E54335"/>
</g>
<defs>
<clipPath id="clip0_6_163">
<rect width="57.3944" height="58.2838" fill="white" transform="translate(0.147217 0.892456)"/>
</clipPath>
</defs>
</svg>
