<svg width="31" height="38" viewBox="0 0 31 38" fill="none" xmlns="http://www.w3.org/2000/svg">
<circle cx="15.3528" cy="22.73" r="15" fill="#1B1B1B"/>
<path d="M13.1405 2.19509C12.6797 2.42308 12.1783 2.58717 11.6618 2.65108C12.198 2.28566 12.5996 1.70835 12.7911 1.02747C12.288 1.37083 11.7367 1.6116 11.1619 1.7391C10.9217 1.44447 10.6311 1.20977 10.3083 1.04959C9.98554 0.889423 9.63746 0.807221 9.28577 0.808113C7.86285 0.808113 6.71849 2.13118 6.71849 3.75479C6.71849 3.98278 6.74258 4.21078 6.78173 4.43014C4.65111 4.30232 2.75086 3.13471 1.48755 1.34701C1.25736 1.79802 1.13673 2.31155 1.13822 2.83417C1.13822 3.85669 1.59144 4.75831 2.28258 5.28858C1.87528 5.27018 1.47752 5.14176 1.12165 4.91377V4.95004C1.12165 6.38192 2.00402 7.56854 3.18 7.84144C2.9592 7.90723 2.73205 7.94089 2.50392 7.94162C2.33678 7.94162 2.17868 7.92262 2.01907 7.89671C2.34431 9.06433 3.29142 9.9124 4.41922 9.94004C3.53686 10.7328 2.43165 11.1992 1.23157 11.1992C1.01625 11.1992 0.817492 11.1906 0.611206 11.1629C1.74955 12.0006 3.10019 12.4843 4.55474 12.4843C9.27674 12.4843 11.8606 7.99689 11.8606 4.10196C11.8606 3.97415 11.8606 3.84633 11.8531 3.71852C12.353 3.2988 12.7911 2.7789 13.1405 2.19509Z" fill="white"/>
</svg>
