<svg width="49" height="37" viewBox="0 0 49 37" fill="none" xmlns="http://www.w3.org/2000/svg">
<circle cx="33.3528" cy="21.7305" r="15" fill="#1B1B1B"/>
<path d="M11.4287 1.58839C10.6163 1.20853 9.75902 0.937412 8.87826 0.781804C8.87029 0.780435 8.86209 0.781618 8.8548 0.785189C8.8475 0.788761 8.84148 0.794546 8.83754 0.801749C8.72713 1.0012 8.60497 1.26209 8.51962 1.46633C7.57023 1.31954 6.60453 1.31954 5.65514 1.46633C5.55993 1.23881 5.45222 1.01693 5.33252 0.801749C5.3285 0.794625 5.32246 0.788906 5.31519 0.785346C5.30793 0.781786 5.29977 0.780551 5.2918 0.781804C4.41085 0.93658 3.55338 1.20784 2.74134 1.58839C2.73439 1.59109 2.72858 1.59617 2.72489 1.60275C1.10081 4.07518 0.655238 6.48696 0.873714 8.86844C0.874497 8.87961 0.881545 8.89077 0.890159 8.89796C1.83589 9.61169 2.89372 10.1566 4.01853 10.5095C4.02647 10.5121 4.035 10.512 4.04289 10.5093C4.05077 10.5065 4.0576 10.5013 4.06238 10.4944C4.30356 10.1593 4.51813 9.80587 4.70293 9.43409C4.70678 9.42643 4.7081 9.41771 4.70669 9.40922C4.70528 9.40074 4.70121 9.39295 4.6951 9.38701C4.69105 9.38312 4.68625 9.38013 4.681 9.37824C4.34363 9.24614 4.01688 9.08742 3.70373 8.90354C3.69499 8.89849 3.68848 8.8902 3.68557 8.8804C3.68265 8.8706 3.68355 8.86003 3.68807 8.85088C3.69074 8.84494 3.69476 8.83975 3.69982 8.83573C3.76559 8.78546 3.83137 8.73281 3.89402 8.68015C3.89955 8.67562 3.90619 8.6727 3.91323 8.67172C3.92026 8.67074 3.92743 8.67172 3.93396 8.67457C5.98482 9.62875 8.20482 9.62875 10.2306 8.67457C10.2374 8.67158 10.2448 8.67053 10.2521 8.67151C10.2594 8.67249 10.2664 8.67548 10.2721 8.68015C10.3348 8.73281 10.4006 8.78546 10.4663 8.83573C10.4717 8.83969 10.4759 8.84495 10.4788 8.85101C10.4816 8.85708 10.483 8.86377 10.4827 8.87049C10.4824 8.87721 10.4804 8.88374 10.477 8.88951C10.4736 8.89528 10.4689 8.9001 10.4632 8.90354C10.1508 9.08911 9.8236 9.24763 9.48514 9.37744C9.47975 9.37943 9.47484 9.38261 9.47078 9.38674C9.46672 9.39088 9.46361 9.39587 9.46165 9.40137C9.45984 9.4067 9.45912 9.41235 9.45952 9.41798C9.45992 9.4236 9.46145 9.42908 9.464 9.43409C9.65194 9.80507 9.86728 10.1593 10.1038 10.4944C10.1085 10.5013 10.1154 10.5065 10.1233 10.5093C10.1311 10.512 10.1397 10.5121 10.1476 10.5095C11.2743 10.1577 12.3339 9.61272 13.2807 8.89796C13.2854 8.89461 13.2894 8.89022 13.2922 8.88511C13.2951 8.88 13.2967 8.8743 13.2971 8.86844C13.5587 6.11518 12.8594 3.72334 11.4444 1.60355C11.443 1.60005 11.4408 1.59689 11.4381 1.59428C11.4354 1.59167 11.4322 1.58966 11.4287 1.58839ZM5.00911 7.41801C4.39127 7.41801 3.88306 6.8404 3.88306 6.13194C3.88306 5.42268 4.38187 4.84506 5.00911 4.84506C5.64105 4.84506 6.14456 5.42747 6.13517 6.13194C6.13517 6.8404 5.63635 7.41801 5.00911 7.41801ZM9.17192 7.41801C8.55486 7.41801 8.04586 6.8404 8.04586 6.13194C8.04586 5.42268 8.54468 4.84506 9.17192 4.84506C9.80385 4.84506 10.3082 5.42747 10.298 6.13194C10.298 6.8404 9.80385 7.41801 9.17192 7.41801Z" fill="white"/>
</svg>
