<svg width="42" height="42" viewBox="0 0 42 42" fill="none" xmlns="http://www.w3.org/2000/svg">
<path d="M21 8.47222C21.9062 8.47222 22.7752 8.11225 23.4159 7.4715C24.0567 6.83075 24.4167 5.96171 24.4167 5.05555C24.4167 4.1494 24.0567 3.28035 23.4159 2.6396C22.7752 1.99885 21.9062 1.63889 21 1.63889C20.0938 1.63889 19.2248 1.99885 18.584 2.6396C17.9433 3.28035 17.5833 4.1494 17.5833 5.05555C17.5833 5.96171 17.9433 6.83075 18.584 7.4715C19.2248 8.11225 20.0938 8.47222 21 8.47222Z" fill="black"/>
<path fill-rule="evenodd" clip-rule="evenodd" d="M21 2.77778C20.3959 2.77778 19.8165 3.01776 19.3894 3.44492C18.9622 3.87209 18.7222 4.45145 18.7222 5.05556C18.7222 5.65966 18.9622 6.23902 19.3894 6.66619C19.8165 7.09335 20.3959 7.33333 21 7.33333C21.6041 7.33333 22.1835 7.09335 22.6106 6.66619C23.0378 6.23902 23.2778 5.65966 23.2778 5.05556C23.2778 4.45145 23.0378 3.87209 22.6106 3.44492C22.1835 3.01776 21.6041 2.77778 21 2.77778ZM16.4444 5.05556C16.4444 3.84735 16.9244 2.68862 17.7787 1.83429C18.6331 0.979959 19.7918 0.5 21 0.5C22.2082 0.5 23.3669 0.979959 24.2213 1.83429C25.0756 2.68862 25.5556 3.84735 25.5556 5.05556C25.5556 6.26376 25.0756 7.42249 24.2213 8.27682C23.3669 9.13115 22.2082 9.61111 21 9.61111C19.7918 9.61111 18.6331 9.13115 17.7787 8.27682C16.9244 7.42249 16.4444 6.26376 16.4444 5.05556Z" fill="black"/>
<path d="M27.8333 20.2028C27.8333 18.3008 27.1135 16.4752 25.8323 15.129C24.5499 13.784 22.8108 13.0278 21 13.0278C19.188 13.0278 17.4501 13.784 16.1677 15.129C14.8756 16.5016 14.1593 18.3177 14.1667 20.2028V23.2778H17.0947L18.0719 33.5278H23.9281L24.9052 23.2778H27.8333V20.2028Z" fill="black"/>
<path fill-rule="evenodd" clip-rule="evenodd" d="M15.3431 14.3443C16.8339 12.7795 18.8669 11.8889 21 11.8889C23.1331 11.8889 25.1661 12.7795 26.6569 14.3443C28.1454 15.9069 28.9722 18.015 28.9722 20.2028V23.2778C28.9722 23.5798 28.8522 23.8695 28.6386 24.0831C28.4251 24.2967 28.1354 24.4167 27.8333 24.4167H25.9405L25.0624 33.636C25.0355 33.9181 24.9043 34.1801 24.6946 34.3707C24.4848 34.5613 24.2115 34.6668 23.9281 34.6667H18.0731C17.7896 34.6668 17.5163 34.5613 17.3066 34.3707C17.0968 34.1801 16.9656 33.9181 16.9387 33.636L16.0606 24.4167H14.1667C13.8646 24.4167 13.5749 24.2967 13.3613 24.0831C13.1478 23.8695 13.0278 23.5798 13.0278 23.2778V20.2028C13.0278 18.0161 13.8546 15.9069 15.3431 14.3443ZM21 14.1667C19.5081 14.1667 18.0651 14.7885 16.9934 15.9149C15.9028 17.0755 15.2987 18.6102 15.3056 20.2028V22.1389H17.0947C17.3782 22.1387 17.6515 22.2443 17.8612 22.4349C18.071 22.6255 18.2022 22.8874 18.2291 23.1696L19.106 32.3889H22.8928L23.7709 23.1696C23.7979 22.8872 23.9292 22.6251 24.1392 22.4345C24.3492 22.2439 24.6228 22.1385 24.9064 22.1389H26.6944V20.2028C26.7013 18.6102 26.0972 17.0755 25.0066 15.9149C24.4929 15.3662 23.8725 14.9281 23.1836 14.6275C22.4947 14.327 21.7516 14.1701 21 14.1667ZM2.77778 9.61111V18.7222H0.5V9.61111H2.77778Z" fill="black"/>
<path fill-rule="evenodd" clip-rule="evenodd" d="M0.5 13.0278H9.61111V15.3056H0.5V13.0278ZM41.5 9.61111V18.7222H39.2222V9.61111H41.5Z" fill="black"/>
<path fill-rule="evenodd" clip-rule="evenodd" d="M32.3889 13.0278H41.5V15.3055H32.3889V13.0278ZM9.76144 26.338C9.80829 26.48 9.82669 26.63 9.81558 26.7792C9.80448 26.9284 9.76408 27.0739 9.69671 27.2075C9.62934 27.3411 9.53631 27.46 9.42294 27.5577C9.30957 27.6553 9.17808 27.7296 9.03597 27.7764C6.96319 28.4586 5.34825 29.2911 4.27314 30.1794C3.19119 31.0757 2.77778 31.9185 2.77778 32.6474C2.77778 33.2966 3.1035 34.0323 3.94172 34.8215C4.78108 35.6131 6.05892 36.3784 7.73081 37.0447C11.07 38.3737 15.7611 39.2222 21 39.2222C26.2389 39.2222 30.93 38.3737 34.2681 37.0435C35.9422 36.3773 37.2178 35.6119 38.0583 34.8204C38.8965 34.0312 39.2222 33.2954 39.2222 32.6463C39.2222 31.9174 38.8088 31.0746 37.7269 30.1806C36.6517 29.2911 35.0357 28.4586 32.9652 27.7764C32.8231 27.7296 32.6916 27.6554 32.5782 27.5578C32.4648 27.4603 32.3718 27.3413 32.3044 27.2078C32.2369 27.0743 32.1965 26.9288 32.1853 26.7797C32.1741 26.6305 32.1924 26.4806 32.2391 26.3385C32.2859 26.1965 32.3601 26.065 32.4577 25.9516C32.5552 25.8382 32.6742 25.7451 32.8077 25.6777C32.9412 25.6103 33.0867 25.5698 33.2358 25.5587C33.385 25.5475 33.5349 25.5658 33.677 25.6125C35.9058 26.3459 37.81 27.2924 39.1789 28.4255C40.5433 29.5542 41.5 30.9801 41.5 32.6463C41.5 34.1268 40.7415 35.4217 39.6208 36.4786C38.5013 37.5321 36.9433 38.4295 35.1108 39.1596C31.4436 40.6208 26.4553 41.5 21 41.5C15.5459 41.5 10.5564 40.6208 6.88917 39.1596C5.05669 38.4307 3.49869 37.5332 2.37917 36.4786C1.25736 35.4217 0.5 34.1268 0.5 32.6463C0.5 30.9801 1.45667 29.5542 2.82106 28.4255C4.19 27.2924 6.09422 26.3459 8.32303 25.6125C8.46511 25.5656 8.61503 25.5472 8.76422 25.5584C8.91341 25.5695 9.05896 25.6099 9.19254 25.6772C9.32611 25.7446 9.44511 25.8376 9.54272 25.951C9.64034 26.0644 9.71466 26.1959 9.76144 26.338Z" fill="black"/>
</svg>
