<svg width="40" height="40" viewBox="0 0 40 40" fill="none" xmlns="http://www.w3.org/2000/svg">
<circle cx="24.3528" cy="24.7305" r="15" fill="black"/>
<path fill-rule="evenodd" clip-rule="evenodd" d="M4.39845 0.90609C5.06649 0.870266 5.27948 0.862305 6.98118 0.862305C8.68289 0.862305 8.89588 0.870929 9.56335 0.90609C10.2308 0.941251 10.6864 1.06531 11.0851 1.2451C11.5025 1.42886 11.8813 1.71612 12.1945 2.08764C12.5134 2.45185 12.7595 2.89236 12.9166 3.37931C13.0715 3.84371 13.1775 4.37444 13.2082 5.15064C13.239 5.93016 13.2458 6.17828 13.2458 8.15991C13.2458 10.1422 13.2384 10.3903 13.2082 11.1685C13.178 11.9447 13.0715 12.4754 12.9166 12.9398C12.7594 13.4268 12.513 13.8681 12.1945 14.2328C11.8813 14.6044 11.5025 14.8909 11.0851 15.0741C10.6864 15.2545 10.2308 15.3779 9.56449 15.4137C8.89588 15.4495 8.68289 15.4575 6.98118 15.4575C5.27948 15.4575 5.06649 15.4489 4.39845 15.4137C3.73212 15.3786 3.27651 15.2545 2.87785 15.0741C2.45978 14.8909 2.081 14.6039 1.76787 14.2328C1.44916 13.8684 1.20253 13.4274 1.04516 12.9405C0.890823 12.4761 0.784894 11.9454 0.754141 11.1692C0.723387 10.3897 0.716553 10.1415 0.716553 8.15991C0.716553 6.17761 0.723956 5.92949 0.754141 5.15197C0.784325 4.37444 0.890823 3.84371 1.04516 3.37931C1.20276 2.89242 1.44958 2.4514 1.76844 2.08697C2.08113 1.71579 2.45953 1.42849 2.87728 1.2451C3.27594 1.06531 3.73155 0.941915 4.39788 0.90609H4.39845ZM9.51266 2.21966C8.85203 2.1845 8.65384 2.1772 6.98118 2.1772C5.30853 2.1772 5.11034 2.1845 4.4497 2.21966C3.83862 2.25217 3.50716 2.37092 3.28619 2.47109C2.99403 2.60378 2.78502 2.76101 2.56576 3.01642C2.35791 3.25197 2.19796 3.53872 2.09762 3.85565C2.01162 4.11305 1.90968 4.49916 1.88177 5.21101C1.85159 5.98058 1.84533 6.21145 1.84533 8.15991C1.84533 10.1084 1.85159 10.3392 1.88177 11.1088C1.90968 11.8206 2.01162 12.2068 2.09762 12.4642C2.19785 12.7806 2.35789 13.0679 2.56576 13.3034C2.76793 13.5455 3.01453 13.732 3.28619 13.8487C3.50716 13.9489 3.83862 14.0676 4.4497 14.1002C5.11034 14.1353 5.30796 14.1426 6.98118 14.1426C8.65441 14.1426 8.85203 14.1353 9.51266 14.1002C10.1238 14.0676 10.4552 13.9489 10.6762 13.8487C10.9683 13.716 11.1773 13.5588 11.3966 13.3034C11.6045 13.0679 11.7645 12.7806 11.8647 12.4642C11.9507 12.2068 12.0527 11.8206 12.0806 11.1088C12.1108 10.3392 12.117 10.1084 12.117 8.15991C12.117 6.21145 12.1108 5.98058 12.0806 5.21101C12.0527 4.49916 11.9507 4.11305 11.8647 3.85565C11.7508 3.51531 11.6159 3.27184 11.3966 3.01642C11.1944 2.77432 10.9482 2.588 10.6762 2.47109C10.4552 2.37092 10.1238 2.25217 9.51266 2.21966V2.21966ZM6.18102 10.4096C6.62789 10.6263 7.12549 10.6555 7.58881 10.4923C8.05214 10.3291 8.45246 9.98359 8.72139 9.51477C8.99032 9.04595 9.11119 8.4829 9.06335 7.92181C9.0155 7.36071 8.80192 6.83637 8.45907 6.43834C8.24051 6.1839 7.97624 5.98908 7.68529 5.86789C7.39434 5.74671 7.08394 5.70218 6.77644 5.73751C6.46894 5.77284 6.17199 5.88715 5.90697 6.07222C5.64195 6.25728 5.41545 6.50849 5.24378 6.80776C5.0721 7.10703 4.95952 7.44692 4.91415 7.80296C4.86877 8.159 4.89173 8.52233 4.98137 8.86679C5.071 9.21125 5.22508 9.52828 5.43252 9.79505C5.63996 10.0618 5.89559 10.2717 6.18102 10.4096ZM4.70428 5.50756C5.00328 5.15925 5.35826 4.88295 5.74893 4.69445C6.1396 4.50594 6.55832 4.40892 6.98118 4.40892C7.40405 4.40892 7.82277 4.50594 8.21344 4.69445C8.60411 4.88295 8.95909 5.15925 9.25809 5.50756C9.5571 5.85587 9.79429 6.26938 9.95611 6.72447C10.1179 7.17956 10.2012 7.66732 10.2012 8.15991C10.2012 8.65249 10.1179 9.14026 9.95611 9.59535C9.79429 10.0504 9.5571 10.4639 9.25809 10.8123C8.65422 11.5157 7.83519 11.9109 6.98118 11.9109C6.12718 11.9109 5.30815 11.5157 4.70428 10.8123C4.1004 10.1088 3.76115 9.15473 3.76115 8.15991C3.76115 7.16508 4.1004 6.21101 4.70428 5.50756V5.50756ZM10.9154 4.96754C10.9895 4.88612 11.0488 4.7882 11.0898 4.6796C11.1308 4.57099 11.1528 4.4539 11.1542 4.33525C11.1557 4.21661 11.1368 4.09882 11.0985 3.98887C11.0602 3.87892 11.0033 3.77903 10.9313 3.69513C10.8593 3.61122 10.7735 3.54501 10.6791 3.5004C10.5847 3.45579 10.4836 3.4337 10.3818 3.43543C10.2799 3.43716 10.1794 3.46267 10.0862 3.51047C9.99295 3.55826 9.90889 3.62736 9.83899 3.71368C9.70306 3.88154 9.62864 4.10451 9.63152 4.33525C9.63441 4.566 9.71438 4.78634 9.85446 4.94952C9.99454 5.1127 10.1837 5.20586 10.3818 5.20922C10.5799 5.21258 10.7713 5.12589 10.9154 4.96754V4.96754Z" fill="white"/>
</svg>
