<svg width="44" height="44" viewBox="0 0 44 44" fill="none" xmlns="http://www.w3.org/2000/svg">
<g clip-path="url(#clip0_6_86)">
<path d="M34.4102 0.821414C31.9528 0.819519 29.595 1.78634 27.8545 3.50966C26.1139 5.23298 25.1328 7.57197 25.1264 10.0132V20.2047C24.1703 20.2688 23.1927 20.3091 22.1793 20.3091C21.1658 20.3091 20.193 20.3495 19.2321 20.4065V10.0132C19.193 7.59314 18.1978 5.28534 16.4613 3.58767C14.7247 1.88999 12.3859 0.938525 9.94953 0.938525C7.51313 0.938525 5.17438 1.88999 3.43782 3.58767C1.70126 5.28534 0.706085 7.59314 0.666992 10.0132V34.3711C0.706085 36.7911 1.70126 39.0989 3.43782 40.7966C5.17438 42.4943 7.51313 43.4457 9.94953 43.4457C12.3859 43.4457 14.7247 42.4943 16.4613 40.7966C18.1978 39.0989 19.193 36.7911 19.2321 34.3711V24.1796C20.1882 24.1155 21.1658 24.0751 22.1793 24.0751C23.1927 24.0751 24.1656 24.0348 25.1264 23.9778V34.3711C25.1655 36.7911 26.1607 39.0989 27.8973 40.7966C29.6338 42.4943 31.9726 43.4457 34.409 43.4457C36.8454 43.4457 39.1841 42.4943 40.9207 40.7966C42.6573 39.0989 43.6524 36.7911 43.6915 34.3711V10.0132C43.6852 7.57238 42.7044 5.23375 40.9643 3.5105C39.2243 1.78725 36.8672 0.820148 34.4102 0.821414ZM9.94834 4.58741C11.3986 4.58677 12.7899 5.15769 13.817 6.17488C14.8441 7.19207 15.423 8.57247 15.4268 10.0132V20.8054C12.7109 21.1964 10.0588 21.9413 7.53897 23.0208C6.44718 23.4969 5.41941 24.1063 4.47944 24.835V10.0132C4.48324 8.57411 5.06087 7.19515 6.08587 6.17823C7.11087 5.16131 8.49972 4.58929 9.94834 4.58741ZM15.4268 34.3711C15.4268 35.8145 14.8496 37.1988 13.8222 38.2194C12.7948 39.2401 11.4013 39.8135 9.94834 39.8135C8.49536 39.8135 7.1019 39.2401 6.07449 38.2194C5.04708 37.1988 4.46988 35.8145 4.46988 34.3711V31.9277C4.46988 29.7692 6.19086 27.7248 9.0759 26.452C11.1087 25.5808 13.2417 24.9611 15.4268 24.607V34.3711ZM34.4102 39.7968C32.9599 39.7975 31.5686 39.2266 30.5415 38.2094C29.5145 37.1922 28.9355 35.8118 28.9317 34.3711V23.5788C31.6476 23.1879 34.2997 22.443 36.8195 21.3634C37.9113 20.8874 38.9391 20.278 39.8791 19.5493V34.3711C39.8753 35.8101 39.2976 37.1891 38.2726 38.206C37.2476 39.2229 35.8588 39.795 34.4102 39.7968ZM35.2826 17.918C33.2498 18.7892 31.1168 19.4089 28.9317 19.763V10.0132C28.9317 8.56978 29.5089 7.18548 30.5363 6.16483C31.5637 5.14418 32.9572 4.57079 34.4102 4.57079C35.8632 4.57079 37.2566 5.14418 38.284 6.16483C39.3114 7.18548 39.8886 8.56978 39.8886 10.0132V12.4566C39.8886 14.6055 38.1677 16.65 35.2826 17.918Z" fill="url(#paint0_linear_6_86)"/>
</g>
<defs>
<linearGradient id="paint0_linear_6_86" x1="3.39188" y1="40.2701" x2="40.4741" y2="2.84038" gradientUnits="userSpaceOnUse">
<stop stop-color="#00AEE9"/>
<stop offset="1" stop-color="#69FABD"/>
</linearGradient>
<clipPath id="clip0_6_86">
<rect width="43.0245" height="42.6251" fill="white" transform="translate(0.666992 0.821411)"/>
</clipPath>
</defs>
</svg>
