<svg width="64" height="64" viewBox="0 0 64 64" fill="none" xmlns="http://www.w3.org/2000/svg">
<g clip-path="url(#clip0_2_6)">
<mask id="mask0_2_6" style="mask-type:luminance" maskUnits="userSpaceOnUse" x="0" y="0" width="64" height="64">
<path d="M0 0H64V64H0V0Z" fill="white"/>
<path fill-rule="evenodd" clip-rule="evenodd" d="M12.3077 27.0769C12.3077 26.4241 12.5671 25.798 13.0287 25.3363C13.4903 24.8747 14.1164 24.6154 14.7693 24.6154H40.1428C40.7957 24.6154 41.4218 24.8747 41.8834 25.3363C42.345 25.798 42.6044 26.4241 42.6044 27.0769C42.6044 27.7298 42.345 28.3559 41.8834 28.8175C41.4218 29.2791 40.7957 29.5385 40.1428 29.5385H14.7693C14.1164 29.5385 13.4903 29.2791 13.0287 28.8175C12.5671 28.3559 12.3077 27.7298 12.3077 27.0769ZM12.3077 17.2308C12.3077 16.5779 12.5671 15.9518 13.0287 15.4902C13.4903 15.0286 14.1164 14.7692 14.7693 14.7692H49.2308C49.8837 14.7692 50.5098 15.0286 50.9714 15.4902C51.433 15.9518 51.6924 16.5779 51.6924 17.2308C51.6924 17.8836 51.433 18.5097 50.9714 18.9713C50.5098 19.433 49.8837 19.6923 49.2308 19.6923H14.7693C14.1164 19.6923 13.4903 19.433 13.0287 18.9713C12.5671 18.5097 12.3077 17.8836 12.3077 17.2308ZM12.3077 36.9231C12.3077 36.2702 12.5671 35.6441 13.0287 35.1825C13.4903 34.7209 14.1164 34.4615 14.7693 34.4615H49.2308C49.8837 34.4615 50.5098 34.7209 50.9714 35.1825C51.433 35.6441 51.6924 36.2702 51.6924 36.9231C51.6924 37.5759 51.433 38.202 50.9714 38.6636C50.5098 39.1253 49.8837 39.3846 49.2308 39.3846H14.7693C14.1164 39.3846 13.4903 39.1253 13.0287 38.6636C12.5671 38.202 12.3077 37.5759 12.3077 36.9231ZM12.3077 46.7692C12.3077 46.1164 12.5671 45.4903 13.0287 45.0287C13.4903 44.567 14.1164 44.3077 14.7693 44.3077H40.1428C40.7957 44.3077 41.4218 44.567 41.8834 45.0287C42.345 45.4903 42.6044 46.1164 42.6044 46.7692C42.6044 47.4221 42.345 48.0482 41.8834 48.5098C41.4218 48.9714 40.7957 49.2308 40.1428 49.2308H14.7693C14.1164 49.2308 13.4903 48.9714 13.0287 48.5098C12.5671 48.0482 12.3077 47.4221 12.3077 46.7692Z" fill="black"/>
</mask>
<g mask="url(#mask0_2_6)">
<path d="M32 64C49.6731 64 64 49.6731 64 32C64 14.3269 49.6731 0 32 0C14.3269 0 0 14.3269 0 32C0 49.6731 14.3269 64 32 64Z" fill="white"/>
</g>
</g>
<defs>
<clipPath id="clip0_2_6">
<rect width="64" height="64" fill="white"/>
</clipPath>
</defs>
</svg>
