<svg width="74" height="49" viewBox="0 0 74 49" fill="none" xmlns="http://www.w3.org/2000/svg">
<g clip-path="url(#clip0_11_256)">
<mask id="mask0_11_256" style="mask-type:alpha" maskUnits="userSpaceOnUse" x="0" y="0" width="74" height="49">
<path d="M0.0162659 0.128296H73.7452V48.8718H0.0162659V0.128296Z" fill="white"/>
</mask>
<g mask="url(#mask0_11_256)">
<path fill-rule="evenodd" clip-rule="evenodd" d="M30.63 5.46445C33.01 3.11963 36.3223 1.66759 39.9817 1.66759C44.8608 1.66759 49.0894 4.23303 51.3663 8.05555C53.3874 7.20042 55.5766 6.75894 57.7905 6.76C66.5729 6.76 73.7018 13.5584 73.7018 21.9474C73.7018 30.3364 66.5729 37.1349 57.7905 37.1349C56.7171 37.1349 55.6708 37.0328 54.6462 36.8398C52.6538 40.2006 48.8454 42.4838 44.5084 42.4838C42.7427 42.4871 40.9995 42.108 39.4124 41.3755C37.393 45.8651 32.6901 49.0206 27.2146 49.0206C21.4952 49.0206 16.6432 45.6085 14.7729 40.8111C13.9404 40.9774 13.0919 41.061 12.2412 41.0605C5.4375 41.0605 -0.0650635 35.7757 -0.0650635 29.2851C-0.0650635 24.9239 2.41245 21.127 6.08805 19.0746C5.30827 17.3745 4.90689 15.5406 4.90893 13.6872C4.90893 6.19611 11.3331 0.141663 19.2481 0.141663C23.8833 0.141663 28.0305 2.2325 30.6327 5.47779" fill="#00A1E0"/>
<path fill-rule="evenodd" clip-rule="evenodd" d="M10.6799 25.4749C10.6335 25.5893 10.6964 25.6132 10.7113 25.6334C10.8498 25.7283 10.9905 25.7971 11.1314 25.8743C11.885 26.2514 12.5952 26.3618 13.3379 26.3618C14.8504 26.3618 15.791 25.5998 15.791 24.3735V24.3494C15.791 23.2155 14.7284 22.8025 13.7363 22.5074L13.6065 22.4677C12.8557 22.2373 12.2078 22.0367 12.2078 21.5698V21.5459C12.2078 21.1457 12.5873 20.8507 13.1728 20.8507C13.8234 20.8507 14.5986 21.0556 15.0946 21.315C15.0946 21.315 15.2416 21.4048 15.295 21.2706C15.324 21.198 15.5769 20.5574 15.604 20.4856C15.6327 20.4104 15.5823 20.3537 15.5305 20.3245C14.9613 19.9961 14.1752 19.7729 13.362 19.7729L13.211 19.7734C11.8259 19.7734 10.8582 20.5662 10.8582 21.7001V21.7245C10.8582 22.92 11.9262 23.3099 12.9237 23.5793L13.0842 23.6265C13.8106 23.8379 14.4395 24.0216 14.4395 24.5039V24.528C14.4395 24.9718 14.0302 25.3027 13.3742 25.3027C13.1191 25.3027 12.3062 25.2986 11.4253 24.7717C11.3187 24.7129 11.258 24.6706 11.1759 24.6232C11.1325 24.5983 11.0241 24.5534 10.9769 24.6878L10.6788 25.4728L10.6799 25.4749ZM32.8246 25.4728C32.7782 25.5873 32.8411 25.6111 32.8565 25.6314C32.9945 25.7263 33.1357 25.7951 33.2767 25.8723C34.0302 26.2494 34.7404 26.3597 35.4831 26.3597C36.9957 26.3597 37.9362 25.5978 37.9362 24.3715V24.3474C37.9362 23.2134 36.8764 22.8004 35.8816 22.5054L35.7518 22.4656C35.0009 22.2352 34.3531 22.0346 34.3531 21.5677V21.5439C34.3531 21.1436 34.7326 20.8486 35.3181 20.8486C35.9686 20.8486 36.7411 21.0536 37.2399 21.313C37.2399 21.313 37.3868 21.4028 37.4405 21.2686C37.4692 21.196 37.7224 20.5554 37.7468 20.4836C37.7758 20.4084 37.7251 20.3517 37.6736 20.3224C37.1044 19.9941 36.3183 19.7709 35.5051 19.7709L35.3538 19.7714C33.9687 19.7714 33.001 20.5641 33.001 21.698V21.7224C33.001 22.9179 34.069 23.3079 35.0665 23.5772L35.2267 23.6244C35.9559 23.8358 36.582 24.0195 36.582 24.5018V24.5259C36.582 24.9697 36.1727 25.3007 35.5167 25.3007C35.2611 25.3007 34.446 25.2966 33.5678 24.7696C33.4613 24.7109 33.3989 24.6704 33.3182 24.6211C33.2908 24.6047 33.1631 24.5575 33.1195 24.6858L32.8213 25.4708L32.8246 25.4728ZM47.9466 23.0695C47.9466 23.7622 47.81 24.3086 47.5427 24.696C47.276 25.0783 46.8732 25.2655 46.3121 25.2655C45.751 25.2655 45.3498 25.0798 45.0869 24.6986C44.822 24.3138 44.6884 23.7648 44.6884 23.0721C44.6884 22.3794 44.8229 21.8355 45.0869 21.4533C45.3493 21.0736 45.7483 20.8915 46.3121 20.8915C46.8759 20.8915 47.2771 21.0754 47.5427 21.4533C47.8116 21.8355 47.9466 22.3794 47.9466 23.0721V23.0695ZM49.2097 21.7868C49.0853 21.3892 48.8926 21.0403 48.6351 20.7478C48.3773 20.4553 48.0523 20.2193 47.6647 20.05C47.2798 19.8794 46.8244 19.7934 46.3094 19.7934C45.7943 19.7934 45.3417 19.8799 44.954 20.05C44.5691 20.2203 44.2412 20.4553 43.9836 20.7478C43.7267 21.0403 43.5337 21.3892 43.409 21.7868C43.2857 22.1819 43.223 22.6129 43.223 23.0721C43.223 23.5313 43.2857 23.9623 43.409 24.3574C43.5329 24.755 43.7261 25.1039 43.9836 25.3964C44.2414 25.6888 44.5691 25.9223 44.954 26.0891C45.3417 26.2553 45.7971 26.34 46.3094 26.34C46.8217 26.34 47.2771 26.2553 47.662 26.0891C48.0469 25.9228 48.3749 25.6888 48.6324 25.3964C48.8896 25.1039 49.0823 24.755 49.207 24.3574C49.3301 23.9623 49.3927 23.5313 49.3927 23.0721C49.3927 22.6154 49.3301 22.1819 49.207 21.7868H49.2097ZM59.5887 25.0706C59.5472 24.9544 59.4274 24.9982 59.4274 24.9982C59.2439 25.0647 59.0479 25.1262 58.8392 25.157C58.6289 25.1883 58.3947 25.204 58.148 25.204C57.5381 25.204 57.0502 25.0318 56.7032 24.6909C56.3536 24.3497 56.1584 23.8007 56.1611 23.0567C56.163 22.3794 56.336 21.8715 56.6463 21.4815C56.9526 21.0967 57.4243 20.8966 58.0477 20.8966C58.5682 20.8966 58.9666 20.9538 59.384 21.0775C59.384 21.0775 59.483 21.1182 59.5304 20.9948C59.6413 20.705 59.7231 20.4972 59.8421 20.179C59.8758 20.088 59.7934 20.0495 59.7633 20.0384C59.5995 19.9779 59.213 19.8786 58.9203 19.8368C58.6465 19.7973 58.3293 19.7768 57.9715 19.7768C57.4403 19.7768 56.9686 19.8627 56.5647 20.0331C56.1608 20.2032 55.8193 20.4384 55.5482 20.7309C55.2772 21.0233 55.0712 21.3722 54.9329 21.7699C54.7961 22.1649 54.7269 22.5985 54.7269 23.0577C54.7269 24.048 55.0088 24.851 55.5672 25.4385C56.1256 26.0285 56.9659 26.3261 58.061 26.3261C58.7088 26.3261 59.3729 26.2022 59.85 26.0234C59.85 26.0234 59.9411 25.9818 59.9015 25.8813L59.5898 25.0706H59.5887ZM61.7989 22.4025C61.8594 22.0177 61.9708 21.697 62.1459 21.4482C62.408 21.0685 62.8073 20.8607 63.3684 20.8607C63.9295 20.8607 64.3008 21.0695 64.5665 21.4482C64.7427 21.6983 64.8197 22.0305 64.8484 22.4025L61.7854 22.402L61.7989 22.4025ZM66.0546 21.5559C65.947 21.1737 65.6806 20.7863 65.5071 20.6093C65.2306 20.3296 64.9622 20.1321 64.6939 20.0243C64.3065 19.8684 63.8897 19.7884 63.4687 19.7891C62.9347 19.7891 62.4495 19.8745 62.0565 20.0482C61.6634 20.2232 61.3327 20.4612 61.0725 20.7588C60.8125 21.0564 60.6171 21.4079 60.4924 21.8107C60.3677 22.2083 60.3048 22.6444 60.3048 23.1011C60.3048 23.568 60.3702 24.0015 60.4987 24.3941C60.6285 24.7891 60.8375 25.1355 61.1194 25.4228C61.4013 25.7127 61.7618 25.9385 62.1955 26.0975C62.6265 26.2553 63.1496 26.3371 63.7487 26.3353C64.9847 26.3315 65.6353 26.0711 65.9009 25.93C65.9484 25.9049 65.9931 25.8615 65.9373 25.7366L65.6581 24.9951C65.6152 24.8846 65.497 24.9246 65.497 24.9246C65.1907 25.0329 64.757 25.2273 63.7406 25.2248C63.0765 25.2237 62.5858 25.0382 62.2768 24.7476C61.9624 24.45 61.8052 24.0164 61.7808 23.4007L66.0636 23.4038C66.0636 23.4038 66.1763 23.4028 66.188 23.2986C66.1926 23.2555 66.3346 22.4674 66.0603 21.5567L66.0546 21.5559ZM27.5638 22.4025C27.6242 22.0177 27.7359 21.697 27.9107 21.4482C28.1731 21.0685 28.5721 20.8607 29.1332 20.8607C29.6943 20.8607 30.0657 21.0695 30.3313 21.4482C30.5072 21.6983 30.5842 22.0305 30.6132 22.4025L27.5502 22.402L27.5638 22.4025ZM31.8195 21.5559C31.7121 21.1737 31.4454 20.7863 31.2719 20.6093C30.9954 20.3296 30.7271 20.1321 30.4587 20.0243C30.0713 19.8684 29.6545 19.7884 29.2335 19.7891C28.6995 19.7891 28.2143 19.8745 27.8213 20.0482C27.4282 20.2232 27.0976 20.4612 26.8373 20.7588C26.5779 21.0564 26.3819 21.4079 26.2573 21.8107C26.1328 22.2083 26.0702 22.6444 26.0702 23.1011C26.0702 23.568 26.135 24.0015 26.2643 24.3941C26.3939 24.7891 26.6031 25.1355 26.8823 25.4228C27.1642 25.7127 27.5247 25.9385 27.9584 26.0975C28.3894 26.2553 28.9099 26.3371 29.5116 26.3353C30.7477 26.3315 31.3982 26.0711 31.6639 25.93C31.711 25.9049 31.756 25.8615 31.6999 25.7366L31.4207 24.9951C31.3776 24.8846 31.2594 24.9246 31.2594 24.9246C30.9531 25.0329 30.5194 25.2273 29.503 25.2248C28.8416 25.2237 28.3482 25.0382 28.0392 24.7476C27.7248 24.45 27.5676 24.0164 27.5432 23.4007L31.826 23.4038C31.826 23.4038 31.9387 23.4028 31.9504 23.2986C31.955 23.2555 32.097 22.4674 31.8224 21.5567L31.8195 21.5559ZM18.3206 25.0449C18.1528 24.9182 18.1295 24.8871 18.0739 24.8048C17.989 24.6809 17.9457 24.5046 17.9457 24.2789C17.9457 23.9248 18.0704 23.6683 18.3279 23.4964C18.3252 23.4969 18.6965 23.1937 19.5693 23.204C19.9578 23.2105 20.3454 23.2418 20.7295 23.2976V25.137H20.73C20.73 25.137 20.1879 25.2476 19.5753 25.2825C18.7052 25.332 18.3203 25.0454 18.323 25.0462L18.3206 25.0449ZM20.0228 22.1973C19.8493 22.1852 19.6244 22.1793 19.356 22.1793C18.9901 22.1793 18.635 22.2224 18.3043 22.3071C17.9709 22.3922 17.67 22.5241 17.4125 22.6996C17.1543 22.8739 16.9419 23.1022 16.7918 23.3666C16.6402 23.6334 16.563 23.9464 16.563 24.3004C16.563 24.6596 16.6289 24.97 16.759 25.224C16.8865 25.4759 17.0784 25.6937 17.3174 25.8576C17.5551 26.0213 17.8486 26.1424 18.1875 26.2142C18.5236 26.2868 18.9031 26.3235 19.3205 26.3235C19.7596 26.3235 20.196 26.2886 20.6189 26.2212C20.979 26.1624 21.3378 26.0963 21.695 26.0231C21.8376 25.9921 21.9959 25.9513 21.9959 25.9513C22.1016 25.9259 22.0935 25.8189 22.0935 25.8189L22.091 22.1247C22.091 21.314 21.8623 20.7111 21.4107 20.3391C20.9607 19.9671 20.302 19.7799 19.4482 19.7799C19.1283 19.7799 18.6106 19.8209 18.3016 19.8796C18.3016 19.8796 17.3691 20.051 16.9842 20.3363C16.9842 20.3363 16.8996 20.3856 16.9457 20.4972L17.2493 21.2668C17.287 21.3666 17.3897 21.3325 17.3897 21.3325C17.3897 21.3325 17.422 21.3204 17.4599 21.2991C18.2813 20.8758 19.3221 20.8886 19.3221 20.8886C19.7829 20.8886 20.1407 20.9771 20.3793 21.1503C20.6127 21.3199 20.7317 21.5762 20.7317 22.1149V22.286C20.3657 22.2358 20.0269 22.2068 20.0269 22.2068L20.0228 22.1973ZM54.4477 20.1116C54.4539 20.098 54.4571 20.0835 54.4572 20.0687C54.4573 20.054 54.4543 20.0394 54.4483 20.0258C54.4423 20.0122 54.4335 19.9999 54.4223 19.9896C54.4112 19.9793 54.398 19.9712 54.3835 19.9658C54.3106 19.9397 53.9471 19.8671 53.6679 19.8507C53.1312 19.8188 52.833 19.9045 52.5647 20.0184C52.2996 20.1316 52.0063 20.3135 51.8436 20.5238L51.8431 20.0313C51.8431 19.9635 51.7924 19.9089 51.7203 19.9089H50.6252C50.5542 19.9089 50.5027 19.9635 50.5027 20.0313V26.0601C50.5028 26.0926 50.5165 26.1238 50.5408 26.1469C50.5651 26.1699 50.5981 26.1829 50.6325 26.1829H51.7547C51.7891 26.1829 51.8221 26.1699 51.8464 26.1469C51.8707 26.1238 51.8843 26.0926 51.8843 26.0601V23.0328C51.8843 22.6275 51.9315 22.2247 52.0255 21.9707C52.1182 21.7196 52.2443 21.5192 52.3996 21.3756C52.5478 21.2368 52.7291 21.1338 52.9282 21.0754C53.115 21.0247 53.3084 20.9989 53.5028 20.999C53.7264 20.999 53.9718 21.0533 53.9718 21.0533C54.0542 21.0621 54.1 21.0143 54.1279 20.9441C54.2013 20.7591 54.4098 20.2052 54.4504 20.0949" fill="#FFFFFE"/>
<path fill-rule="evenodd" clip-rule="evenodd" d="M43.9666 17.3291C43.8279 17.2894 43.6867 17.2577 43.544 17.2342C43.352 17.2038 43.1575 17.1896 42.9628 17.1916C42.1895 17.1916 41.5799 17.3984 41.1519 17.8068C40.7268 18.2121 40.4376 18.8296 40.2926 19.6421L40.2403 19.9164H39.2696C39.2696 19.9164 39.1511 19.9117 39.1262 20.0341L38.9668 20.8756C38.9557 20.9561 38.9923 21.0064 39.1061 21.0059H40.0511L39.0923 26.0709C39.0172 26.4788 38.9313 26.8143 38.8362 27.0686C38.7424 27.3195 38.6508 27.5075 38.538 27.644C38.4288 27.7761 38.3252 27.8733 38.1466 27.93C37.9991 27.977 37.8294 27.9985 37.6435 27.9985C37.5399 27.9985 37.4022 27.9821 37.3006 27.9629C37.199 27.9439 37.1461 27.9223 37.0699 27.8921C37.0699 27.8921 36.9591 27.852 36.9154 27.9572C36.8799 28.0432 36.6281 28.6986 36.5983 28.7797C36.5679 28.8597 36.6105 28.9229 36.6641 28.9411C36.7899 28.9837 36.8834 29.0109 37.0547 29.0491C37.2927 29.1022 37.4933 29.1055 37.6812 29.1055C38.0748 29.1055 38.4334 29.0532 38.7307 28.9516C39.03 28.8492 39.2905 28.6709 39.5209 28.4295C39.77 28.1691 39.9267 27.8964 40.0766 27.5244C40.2248 27.1558 40.3511 26.6981 40.4522 26.1647L41.4156 21.0059H42.824C42.824 21.0059 42.9428 21.01 42.9674 20.8881L43.1268 20.0467C43.1379 19.9661 43.1016 19.9158 42.9872 19.9164H41.6203C41.627 19.8871 41.6891 19.432 41.846 19.0036C41.913 18.8206 42.039 18.6731 42.1458 18.5718C42.2456 18.4753 42.3684 18.403 42.5039 18.3609C42.6525 18.3174 42.8073 18.2963 42.9628 18.2983C43.0916 18.2983 43.2179 18.3129 43.3141 18.3319C43.4467 18.3586 43.4982 18.3727 43.5329 18.3825C43.6722 18.4227 43.6909 18.3838 43.7183 18.3199L44.0452 17.4702C44.0788 17.3789 43.9969 17.3404 43.9666 17.3291V17.3291ZM24.8637 26.0816C24.8637 26.1494 24.8128 26.2045 24.7412 26.2045H23.6074C23.5355 26.2045 23.4846 26.1494 23.4846 26.0816V17.4443C23.4846 17.3768 23.5355 17.3222 23.6074 17.3222H24.7412C24.8128 17.3222 24.8637 17.3768 24.8637 17.4443V26.0816" fill="#FFFFFE"/>
</g>
</g>
<defs>
<clipPath id="clip0_11_256">
<rect width="74" height="49" fill="white"/>
</clipPath>
</defs>
</svg>
