<svg width="52" height="46" viewBox="0 0 52 46" fill="none" xmlns="http://www.w3.org/2000/svg">
<path d="M25.2546 0.177655C25.7274 -0.0592183 26.2726 -0.0592183 26.7454 0.177655L50.9726 12.3165C51.5991 12.6304 52 13.309 52 14.0556C52 14.2768 51.9648 14.4921 51.8989 14.6938C51.9644 14.8938 52 15.1091 52 15.3333V36.4167C52 37.4752 51.2063 38.3333 50.2273 38.3333C49.2482 38.3333 48.4545 37.4752 48.4545 36.4167V17.0562L42.5086 20.0354C42.5327 20.1599 42.5454 20.2889 42.5454 20.4211V34.9733C42.5454 36.6483 41.6584 38.1793 40.2549 38.9268L27.8458 45.5357C26.6835 46.1548 25.3164 46.1548 24.1541 45.5357L11.745 38.9268C10.3415 38.1793 9.4545 36.6483 9.45455 34.9732L9.45486 20.421C9.45486 20.2889 9.46753 20.16 9.49164 20.0355L1.02736 15.7946C0.4009 15.4807 0 14.8021 0 14.0556C0 13.309 0.4009 12.6304 1.02736 12.3165L25.2546 0.177655ZM13.0003 21.7935L13 34.9733C13 35.2126 13.1267 35.4313 13.3272 35.5381L25.7363 42.147C25.9023 42.2355 26.0976 42.2355 26.2637 42.147L38.6727 35.5381C38.8732 35.4313 39 35.2126 39 34.9733V21.7934L26.7454 27.9335C26.2726 28.1703 25.7274 28.1703 25.2546 27.9335L13.0003 21.7935ZM6.45165 14.2874L25.5031 23.833C25.8183 23.9909 26.1817 23.9909 26.4969 23.833L45.5483 14.2874C45.731 14.1959 45.731 13.9152 45.5483 13.8237L26.4969 4.27811C26.1817 4.12019 25.8183 4.12019 25.5031 4.27811L6.45165 13.8237C6.26901 13.9152 6.26901 14.1959 6.45165 14.2874Z" fill="white"/>
</svg>
