<svg width="50" height="58" viewBox="0 0 50 58" fill="none" xmlns="http://www.w3.org/2000/svg">
<path d="M43.704 11.1981C43.6647 10.913 43.415 10.7552 43.2085 10.7378C43.0025 10.7206 38.642 10.3974 38.642 10.3974C38.642 10.3974 35.6136 7.39089 35.2812 7.05811C34.9486 6.72553 34.2991 6.82669 34.0469 6.9009C34.0098 6.91184 33.3853 7.10459 32.3522 7.42428C31.3406 4.51325 29.5552 1.83812 26.4143 1.83812C26.3276 1.83812 26.2384 1.84164 26.1491 1.84672C25.2558 0.665391 24.1493 0.152161 23.1935 0.152161C15.8769 0.152161 12.3813 9.29871 11.2854 13.9467C8.44228 14.8276 6.42256 15.4539 6.16458 15.535C4.57763 16.0328 4.52744 16.0828 4.31906 17.5782C4.16224 18.7103 0.00991821 50.8221 0.00991821 50.8221L32.3657 56.8844L49.8971 53.0918C49.8971 53.0918 43.7428 11.4833 43.7042 11.1981H43.704ZM30.5639 7.97735L27.8261 8.82473C27.8271 8.63178 27.828 8.44196 27.828 8.23436C27.828 6.42517 27.5769 4.96848 27.174 3.81371C28.7924 4.01681 29.8702 5.85823 30.5639 7.97735ZM25.1664 4.17246C25.6163 5.29989 25.9089 6.91789 25.9089 9.10127C25.9089 9.21297 25.9079 9.31511 25.9069 9.41842C24.1265 9.96993 22.1917 10.5687 20.2526 11.1694C21.3414 6.96749 23.3822 4.93801 25.1664 4.17246V4.17246ZM22.9926 2.11466C23.3084 2.11466 23.6265 2.22188 23.931 2.43142C21.5861 3.53483 19.0727 6.31385 18.0112 11.8635L13.5418 13.2477C14.785 9.01475 17.7371 2.11466 22.9924 2.11466H22.9926Z" fill="#95BF46"/>
<path d="M43.2085 10.7378C43.0025 10.7206 38.642 10.3974 38.642 10.3974C38.642 10.3974 35.6136 7.39085 35.2812 7.05807C35.1568 6.93426 34.989 6.87079 34.8137 6.84344L32.3672 56.8839L49.8971 53.0917C49.8971 53.0917 43.7427 11.4832 43.704 11.1981C43.6647 10.913 43.415 10.7552 43.2085 10.7378" fill="#5E8E3E"/>
<path d="M26.4143 20.4247L24.2526 26.8549C24.2526 26.8549 22.3587 25.8441 20.037 25.8441C16.6334 25.8441 16.4622 27.98 16.4622 28.5182C16.4622 31.455 24.1177 32.5803 24.1177 39.4593C24.1177 44.8715 20.685 48.3565 16.0566 48.3565C10.5024 48.3565 7.66208 44.8998 7.66208 44.8998L9.14923 39.9862C9.14923 39.9862 12.0689 42.4928 14.5325 42.4928C16.1423 42.4928 16.7971 41.2253 16.7971 40.2993C16.7971 36.4684 10.5165 36.2975 10.5165 30.0026C10.5165 24.7045 14.3192 19.5775 21.9954 19.5775C24.9531 19.5775 26.4143 20.4247 26.4143 20.4247" fill="white"/>
</svg>
