<svg width="59" height="59" viewBox="0 0 59 59" fill="none" xmlns="http://www.w3.org/2000/svg">
<g clip-path="url(#clip0_11_240)">
<path d="M12.6362 37.1654C12.6362 40.5567 9.89526 43.2976 6.50393 43.2976C3.11259 43.2976 0.371643 40.5567 0.371643 37.1654C0.371643 33.774 3.11259 31.0331 6.50393 31.0331H12.6362V37.1654ZM15.7024 37.1654C15.7024 33.774 18.4433 31.0331 21.8346 31.0331C25.226 31.0331 27.9669 33.774 27.9669 37.1654V52.4961C27.9669 55.8874 25.226 58.6284 21.8346 58.6284C18.4433 58.6284 15.7024 55.8874 15.7024 52.4961V37.1654Z" fill="#E01E5A"/>
<path d="M21.8346 12.5433C18.4433 12.5433 15.7024 9.80237 15.7024 6.41103C15.7024 3.01969 18.4433 0.278748 21.8346 0.278748C25.226 0.278748 27.9669 3.01969 27.9669 6.41103V12.5433H21.8346ZM21.8346 15.6559C25.226 15.6559 27.9669 18.3969 27.9669 21.7882C27.9669 25.1795 25.226 27.9205 21.8346 27.9205H6.45748C3.06614 27.9205 0.325195 25.1795 0.325195 21.7882C0.325195 18.3969 3.06614 15.6559 6.45748 15.6559H21.8346Z" fill="#36C5F0"/>
<path d="M46.4102 21.7882C46.4102 18.3969 49.1512 15.6559 52.5425 15.6559C55.9339 15.6559 58.6748 18.3969 58.6748 21.7882C58.6748 25.1795 55.9339 27.9205 52.5425 27.9205H46.4102V21.7882ZM43.3441 21.7882C43.3441 25.1795 40.6031 27.9205 37.2118 27.9205C33.8205 27.9205 31.0795 25.1795 31.0795 21.7882V6.41103C31.0795 3.01969 33.8205 0.278748 37.2118 0.278748C40.6031 0.278748 43.3441 3.01969 43.3441 6.41103V21.7882V21.7882Z" fill="#2EB67D"/>
<path d="M37.2118 46.3638C40.6031 46.3638 43.3441 49.1047 43.3441 52.4961C43.3441 55.8874 40.6031 58.6284 37.2118 58.6284C33.8205 58.6284 31.0795 55.8874 31.0795 52.4961V46.3638H37.2118ZM37.2118 43.2976C33.8205 43.2976 31.0795 40.5567 31.0795 37.1654C31.0795 33.774 33.8205 31.0331 37.2118 31.0331H52.589C55.9803 31.0331 58.7213 33.774 58.7213 37.1654C58.7213 40.5567 55.9803 43.2976 52.589 43.2976H37.2118Z" fill="#ECB22E"/>
</g>
<defs>
<clipPath id="clip0_11_240">
<rect width="59" height="59" fill="white"/>
</clipPath>
</defs>
</svg>
