<svg width="58" height="58" viewBox="0 0 58 58" fill="none" xmlns="http://www.w3.org/2000/svg">
<g clip-path="url(#clip0_11_203)">
<path d="M28.9986 0.0956421C13.0317 0.0956421 0.0873413 13.0397 0.0873413 29.0066C0.0873413 44.9742 13.0317 57.9172 28.9986 57.9172C44.9673 57.9172 57.9102 44.9742 57.9102 29.0066C57.9102 13.0407 44.9673 0.097023 28.9983 0.097023L28.9986 0.0956421V0.0956421ZM42.2571 41.7935C41.7393 42.6428 40.6276 42.9121 39.7783 42.3908C32.9903 38.2445 24.4449 37.3054 14.3812 39.6047C13.4115 39.8256 12.4448 39.218 12.2238 38.2479C12.0019 37.2778 12.6071 36.3111 13.5792 36.0902C24.5923 33.573 34.0391 34.6574 41.6599 39.3147C42.5092 39.836 42.7784 40.9442 42.2571 41.7935V41.7935ZM45.7958 33.9203C45.1433 34.982 43.7555 35.3168 42.6956 34.6643C34.9243 29.8866 23.0781 28.5032 13.8862 31.2934C12.6941 31.6535 11.435 30.9817 11.0732 29.7916C10.7141 28.5995 11.3863 27.3429 12.5763 26.9804C23.0761 23.7945 36.1292 25.3377 45.0536 30.8218C46.1134 31.4743 46.4483 32.8622 45.7958 33.9207V33.9203ZM46.0996 25.723C36.7817 20.1885 21.4082 19.6796 12.5118 22.3797C11.0832 22.813 9.57241 22.0065 9.13948 20.5779C8.70656 19.1486 9.51234 17.6389 10.942 17.2046C21.1545 14.1044 38.1315 14.7034 48.8595 21.072C50.1472 21.8346 50.5684 23.4942 49.8054 24.7774C49.0459 26.0624 47.3818 26.486 46.101 25.723H46.0996Z" fill="#1ED760"/>
</g>
<defs>
<clipPath id="clip0_11_203">
<rect width="58" height="58" fill="white"/>
</clipPath>
</defs>
</svg>
