<svg width="23" height="19" viewBox="0 0 23 19" fill="none" xmlns="http://www.w3.org/2000/svg">
<g clip-path="url(#clip0_7_153)">
<path d="M5.02562 0.668579C5.76163 0.668579 6.4675 0.966508 6.98794 1.49683C7.50838 2.02714 7.80076 2.74641 7.80076 3.49639C7.80076 4.24637 7.50838 4.96564 6.98794 5.49595C6.4675 6.02627 5.76163 6.3242 5.02562 6.3242C4.2896 6.3242 3.58373 6.02627 3.06329 5.49595C2.54285 4.96564 2.25047 4.24637 2.25047 3.49639C2.25047 2.74641 2.54285 2.02714 3.06329 1.49683C3.58373 0.966508 4.2896 0.668579 5.02562 0.668579ZM17.7913 0.668579C18.5273 0.668579 19.2332 0.966508 19.7536 1.49683C20.274 2.02714 20.5664 2.74641 20.5664 3.49639C20.5664 4.24637 20.274 4.96564 19.7536 5.49595C19.2332 6.02627 18.5273 6.3242 17.7913 6.3242C17.0553 6.3242 16.3494 6.02627 15.829 5.49595C15.3085 4.96564 15.0161 4.24637 15.0161 3.49639C15.0161 2.74641 15.3085 2.02714 15.829 1.49683C16.3494 0.966508 17.0553 0.668579 17.7913 0.668579ZM0.0303602 11.2269C0.0303602 9.14494 1.68851 7.45532 3.73171 7.45532H5.21294C5.7645 7.45532 6.28831 7.57904 6.76008 7.79819C6.71498 8.0527 6.69417 8.3178 6.69417 8.58645C6.69417 9.93673 7.27695 11.1491 8.19622 11.9798C8.18928 11.9798 8.18234 11.9798 8.17193 11.9798H0.769242C0.363377 11.9798 0.0303602 11.6405 0.0303602 11.2269ZM14.0899 11.9798C14.083 11.9798 14.0761 11.9798 14.0656 11.9798C14.9884 11.1491 15.5677 9.93673 15.5677 8.58645C15.5677 8.3178 15.5434 8.05623 15.5018 7.79819C15.9736 7.5755 16.4974 7.45532 17.0489 7.45532H18.5302C20.5734 7.45532 22.2315 9.14494 22.2315 11.2269C22.2315 11.644 21.8985 11.9798 21.4926 11.9798H14.0899ZM7.80076 8.58645C7.80076 7.68647 8.15162 6.82335 8.77614 6.18697C9.40067 5.55059 10.2477 5.19307 11.1309 5.19307C12.0141 5.19307 12.8612 5.55059 13.4857 6.18697C14.1102 6.82335 14.4611 7.68647 14.4611 8.58645C14.4611 9.48642 14.1102 10.3495 13.4857 10.9859C12.8612 11.6223 12.0141 11.9798 11.1309 11.9798C10.2477 11.9798 9.40067 11.6223 8.77614 10.9859C8.15162 10.3495 7.80076 9.48642 7.80076 8.58645ZM4.47059 17.8228C4.47059 15.2212 6.54154 13.1109 9.09467 13.1109H13.1672C15.7203 13.1109 17.7913 15.2212 17.7913 17.8228C17.7913 18.3424 17.3785 18.7666 16.8651 18.7666H5.39679C4.88686 18.7666 4.47059 18.3459 4.47059 17.8228Z" fill="white" fill-opacity="0.5"/>
</g>
<defs>
<clipPath id="clip0_7_153">
<rect width="22.2011" height="18.098" fill="white" transform="translate(0.0303602 0.668579)"/>
</clipPath>
</defs>
</svg>
