<svg width="59" height="59" viewBox="0 0 59 59" fill="none" xmlns="http://www.w3.org/2000/svg">
<g clip-path="url(#clip0_12_315)">
<path d="M41.4167 58.875C41.4167 54.8019 35.9135 51.5 29.125 51.5C22.3365 51.5 16.8333 54.8019 16.8333 58.875M51.25 51.5009C51.25 48.4767 48.2162 45.8776 43.875 44.7396M7 51.5009C7 48.4767 10.0338 45.8776 14.375 44.7396M43.875 34.8721C45.3838 33.5217 46.3333 31.5592 46.3333 29.375C46.3333 25.3019 43.0314 22 38.9583 22C37.0695 22 35.3464 22.7101 34.0417 23.8779M14.375 34.8721C12.8662 33.5217 11.9167 31.5592 11.9167 29.375C11.9167 25.3019 15.2186 22 19.2917 22C21.1805 22 22.9036 22.7101 24.2083 23.8779M29.125 44.125C25.0519 44.125 21.75 40.8231 21.75 36.75C21.75 32.6769 25.0519 29.375 29.125 29.375C33.1981 29.375 36.5 32.6769 36.5 36.75C36.5 40.8231 33.1981 44.125 29.125 44.125Z" stroke="white" stroke-width="2" stroke-linecap="round" stroke-linejoin="round"/>
</g>
<defs>
<clipPath id="clip0_12_315">
<rect width="59" height="59" fill="white"/>
</clipPath>
</defs>
</svg>
