<svg width="42" height="52" viewBox="0 0 42 52" fill="none" xmlns="http://www.w3.org/2000/svg">
<path d="M35.2999 3.89995H29.4296C29.1296 3.49841 28.7404 3.172 28.2928 2.94641C27.8451 2.72083 27.3512 2.60223 26.85 2.59995H24.6735C24.4055 1.83963 23.9083 1.18118 23.2503 0.715413C22.5924 0.249646 21.8061 -0.000488281 21 -0.000488281C20.1938 -0.000488281 19.4075 0.249646 18.7496 0.715413C18.0916 1.18118 17.5944 1.83963 17.3264 2.59995H15.15C14.6487 2.60223 14.1548 2.72083 13.7071 2.94641C13.2595 3.172 12.8703 3.49841 12.5703 3.89995H6.69995C4.97761 3.90504 3.32727 4.59149 2.10938 5.80937C0.891496 7.02726 0.205042 8.6776 0.199951 10.3999V45.4999C0.205042 47.2223 0.891496 48.8726 2.10938 50.0905C3.32727 51.3084 4.97761 51.9949 6.69995 51.9999H35.2999C37.0223 51.9949 38.6726 51.3084 39.8905 50.0905C41.1084 48.8726 41.7949 47.2223 41.7999 45.4999V10.3999C41.7949 8.6776 41.1084 7.02726 39.8905 5.80937C38.6726 4.59149 37.0223 3.90504 35.2999 3.89995ZM21 2.59995C21.2571 2.59995 21.5084 2.67619 21.7222 2.81903C21.936 2.96188 22.1026 3.16491 22.201 3.40246C22.2994 3.64 22.3251 3.90139 22.275 4.15356C22.2248 4.40574 22.101 4.63738 21.9192 4.81918C21.7374 5.00099 21.5057 5.12481 21.2536 5.17497C21.0014 5.22513 20.74 5.19938 20.5025 5.10099C20.2649 5.0026 20.0619 4.83597 19.919 4.62219C19.7762 4.4084 19.7 4.15706 19.7 3.89995C19.7002 3.55525 19.8373 3.22474 20.081 2.981C20.3247 2.73726 20.6553 2.60021 21 2.59995ZM14.5 5.84995C14.5023 5.67829 14.5716 5.51433 14.6929 5.39294C14.8143 5.27155 14.9783 5.20231 15.15 5.19995H17.3264C17.5944 5.96026 18.0916 6.61871 18.7496 7.08448C19.4075 7.55025 20.1938 7.80038 21 7.80038C21.8061 7.80038 22.5924 7.55025 23.2503 7.08448C23.9083 6.61871 24.4055 5.96026 24.6735 5.19995H26.85C27.0216 5.20231 27.1856 5.27155 27.307 5.39294C27.4283 5.51433 27.4976 5.67829 27.4999 5.84995V9.74995C27.4976 9.9216 27.4283 10.0856 27.307 10.207C27.1856 10.3283 27.0216 10.3976 26.85 10.3999H15.15C14.9783 10.3976 14.8143 10.3283 14.6929 10.207C14.5716 10.0856 14.5023 9.9216 14.5 9.74995V5.84995ZM39.2 45.4999C39.1989 46.534 38.7876 47.5253 38.0565 48.2565C37.3253 48.9876 36.334 49.3989 35.2999 49.3999H6.69995C5.66594 49.3989 4.67458 48.9876 3.94342 48.2565C3.21226 47.5253 2.80103 46.534 2.79995 45.4999V10.3999C2.80103 9.36593 3.21226 8.37458 3.94342 7.64342C4.67458 6.91226 5.66594 6.50102 6.69995 6.49995H11.9V9.74995C11.9024 10.6112 12.2455 11.4364 12.8545 12.0454C13.4635 12.6543 14.2887 12.9975 15.15 12.9999H26.85C27.7112 12.9975 28.5364 12.6543 29.1454 12.0454C29.7544 11.4364 30.0975 10.6112 30.1 9.74995V6.49995H35.2999C36.334 6.50102 37.3253 6.91226 38.0565 7.64342C38.7876 8.37458 39.1989 9.36593 39.2 10.3999V45.4999Z" fill="white"/>
</svg>
