<svg width="52" height="52" viewBox="0 0 52 52" fill="none" xmlns="http://www.w3.org/2000/svg">
<path d="M26 21.6663C27.4284 21.6663 28.8247 21.2428 30.0124 20.4492C31.2001 19.6556 32.1257 18.5277 32.6724 17.208C33.219 15.8883 33.362 14.4362 33.0833 13.0353C32.8047 11.6343 32.1168 10.3474 31.1068 9.33742C30.0968 8.32739 28.8099 7.63955 27.409 7.36088C26.008 7.08221 24.5559 7.22524 23.2362 7.77186C21.9166 8.31848 20.7886 9.24416 19.995 10.4318C19.2015 11.6195 18.7779 13.0158 18.7779 14.4442C18.78 16.359 19.5416 18.1947 20.8956 19.5486C22.2495 20.9026 24.0852 21.6642 26 21.6663ZM22.0015 14.4828C22.2466 14.1894 22.5981 14.0052 22.9789 13.9705C23.3597 13.9359 23.7387 14.0536 24.0327 14.298L25.0484 15.144L27.6473 10.8123C27.745 10.6497 27.8737 10.5079 28.0261 10.395C28.1786 10.2821 28.3518 10.2003 28.5358 10.1543C28.7198 10.1083 28.9111 10.099 29.0988 10.127C29.2864 10.155 29.4667 10.2196 29.6293 10.3172C29.792 10.4149 29.9338 10.5436 30.0467 10.696C30.1596 10.8484 30.2414 11.0216 30.2874 11.2057C30.3334 11.3897 30.3426 11.581 30.3147 11.7687C30.2867 11.9563 30.2221 12.1366 30.1245 12.2992L26.6612 18.0781C26.5539 18.2568 26.4092 18.4101 26.237 18.5276C26.0649 18.645 25.8693 18.7238 25.6638 18.7586C25.5843 18.7723 25.5038 18.7791 25.4231 18.7789C25.0853 18.7787 24.7583 18.6601 24.4989 18.4438L22.1873 16.5141C21.8938 16.2691 21.7094 15.9176 21.6745 15.5369C21.6397 15.1561 21.7573 14.777 22.0015 14.4828ZM6.40656 25.2891L11.5558 28.8935H40.4442L45.6087 25.282C45.7095 25.2009 45.8154 25.1263 45.9255 25.0585C46.0271 24.9945 46.1216 24.9336 46.2221 24.8747V4.33367C46.221 3.18464 45.7641 2.08298 44.9516 1.27049C44.1391 0.458003 43.0375 0.00107562 41.8884 0L10.1116 0C8.96253 0.00107562 7.86087 0.458003 7.04838 1.27049C6.23589 2.08298 5.77897 3.18464 5.77789 4.33367V24.8706C5.87945 24.9295 5.98102 24.9905 6.07445 25.0545C6.18922 25.1266 6.29688 25.2058 6.40656 25.2891ZM26 4.33367C27.9999 4.33367 29.9548 4.9267 31.6177 6.03778C33.2805 7.14885 34.5765 8.72806 35.3419 10.5757C36.1072 12.4234 36.3074 14.4565 35.9173 16.4179C35.5271 18.3794 34.5641 20.1811 33.15 21.5952C31.7358 23.0093 29.9341 23.9723 27.9727 24.3625C26.0112 24.7527 23.9781 24.5524 22.1305 23.7871C20.2828 23.0218 18.7036 21.7258 17.5925 20.0629C16.4815 18.4001 15.8884 16.4451 15.8884 14.4452C15.8884 11.7635 16.9538 9.19157 18.85 7.29528C20.7463 5.39899 23.3182 4.33367 26 4.33367ZM52 29.8716V47.6663C51.9989 48.8154 51.542 49.917 50.7295 50.7295C49.917 51.542 48.8154 51.9989 47.6663 52H4.33367C3.18464 51.9989 2.08298 51.542 1.27049 50.7295C0.458003 49.917 0.00107562 48.8154 0 47.6663L0 29.8716C0.00107471 29.1058 0.305736 28.3718 0.847191 27.8303C1.38865 27.2889 2.12271 26.9842 2.88844 26.9831C3.45057 26.9811 4.00061 27.1462 4.46875 27.4574L4.50531 27.4818L4.54492 27.5062C4.59062 27.5356 4.63328 27.5681 4.67695 27.6006L4.70539 27.6209L4.72672 27.6362L4.74805 27.6514L9.89727 31.2559L10.6438 31.7779H41.3542L42.0997 31.2569L47.2641 27.6453L47.3332 27.5966L47.4002 27.5438L47.4145 27.5295L47.4734 27.494L47.5302 27.4564C47.9987 27.1451 48.5491 26.98 49.1116 26.9821C49.8775 26.9832 50.6117 27.288 51.1532 27.8297C51.6947 28.3713 51.9992 29.1057 52 29.8716Z" fill="white"/>
</svg>
