<svg width="40" height="42" viewBox="0 0 40 42" fill="none" xmlns="http://www.w3.org/2000/svg">
<path d="M19.9675 0C21.4441 0 22.8602 0.68933 23.9043 1.91634C24.9484 3.14336 25.535 4.80755 25.535 6.54281C25.535 8.27807 24.9484 9.94226 23.9043 11.1693C22.8602 12.3963 21.4441 13.0856 19.9675 13.0856C18.4906 13.0856 17.0741 12.3961 16.0298 11.1688C14.9855 9.94155 14.3988 8.27699 14.3988 6.54134C14.3988 4.80569 14.9855 3.14113 16.0298 1.91384C17.0741 0.686547 18.4906 0 19.9675 0ZM19.9675 2.93795C19.1539 2.93795 18.3737 3.31774 17.7985 3.99379C17.2232 4.66983 16.9 5.58674 16.9 6.54281C16.9 7.49888 17.2232 8.41579 17.7985 9.09183C18.3737 9.76787 19.1539 10.1477 19.9675 10.1477C20.7814 10.1477 21.5619 9.76772 22.1374 9.0914C22.7129 8.41508 23.0363 7.4978 23.0363 6.54134C23.0363 5.58488 22.7129 4.6676 22.1374 3.99128C21.5619 3.31496 20.7814 2.93795 19.9675 2.93795ZM2.54 25.0019C2.54 25.3915 2.4083 25.7652 2.17388 26.0407C1.93946 26.3161 1.62152 26.4709 1.29 26.4709C0.958479 26.4709 0.640537 26.3161 0.406116 26.0407C0.171696 25.7652 0.0400001 25.3915 0.0400001 25.0019V17.6982C0.0400809 16.9786 0.26489 16.2841 0.671788 15.7463C1.07869 15.2086 1.63937 14.865 2.2475 14.7808L2.54 14.7602H9.4325C9.06874 15.4979 8.84688 16.3202 8.7825 17.1694L8.7625 17.6982H2.5375L2.54 25.0019ZM38.725 26.4709C39.0565 26.4709 39.3745 26.3161 39.6089 26.0407C39.8433 25.7652 39.975 25.3915 39.975 25.0019V17.6982L39.9575 17.3574C39.8864 16.6422 39.5943 15.9826 39.1367 15.5038C38.679 15.025 38.0877 14.7604 37.475 14.7602H30.515C30.88 15.5035 31.115 16.3556 31.17 17.2604L31.1825 17.7011H37.475V25.0019C37.475 25.3915 37.6067 25.7652 37.8411 26.0407C38.0755 26.3161 38.3935 26.4709 38.725 26.4709ZM26.185 14.7602C26.7977 14.7604 27.389 15.025 27.8467 15.5038C28.3043 15.9826 28.5964 16.6422 28.6675 17.3574L28.6825 17.6982V25.0019C28.6825 25.3915 28.5508 25.7652 28.3164 26.0407C28.082 26.3161 27.764 26.4709 27.4325 26.4709C27.101 26.4709 26.783 26.3161 26.5486 26.0407C26.3142 25.7652 26.1825 25.3915 26.1825 25.0019V17.6982H13.7625V25.0019C13.7625 25.3915 13.6308 25.7652 13.3964 26.0407C13.162 26.3161 12.844 26.4709 12.5125 26.4709C12.181 26.4709 11.863 26.3161 11.6286 26.0407C11.3942 25.7652 11.2625 25.3915 11.2625 25.0019V17.6982C11.2626 16.9786 11.4874 16.2841 11.8943 15.7463C12.3012 15.2086 12.8619 14.865 13.47 14.7808L13.7625 14.7602H26.1825H26.185ZM37.22 7.46533C37.22 5.97434 36.716 4.54442 35.8189 3.49014C34.9217 2.43585 33.705 1.84356 32.4362 1.84356C31.1675 1.84356 29.9508 2.43585 29.0536 3.49014C28.1565 4.54442 27.6525 5.97434 27.6525 7.46533C27.6525 8.95631 28.1565 10.3862 29.0536 11.4405C29.9508 12.4948 31.1675 13.0871 32.4362 13.0871C33.705 13.0871 34.9217 12.4948 35.8189 11.4405C36.716 10.3862 37.22 8.95631 37.22 7.46533ZM30.1525 7.46533C30.1525 6.75353 30.3931 6.07089 30.8214 5.56758C31.2497 5.06427 31.8306 4.78151 32.4362 4.78151C33.0419 4.78151 33.6228 5.06427 34.0511 5.56758C34.4794 6.07089 34.72 6.75353 34.72 7.46533C34.72 8.17712 34.4794 8.85976 34.0511 9.36307C33.6228 9.86638 33.0419 10.1491 32.4362 10.1491C31.8306 10.1491 31.2497 9.86638 30.8214 9.36307C30.3931 8.85976 30.1525 8.17712 30.1525 7.46533ZM7.54 1.84209C8.80873 1.84209 10.0255 2.43438 10.9226 3.48867C11.8197 4.54295 12.3238 5.97287 12.3238 7.46386C12.3238 8.95484 11.8197 10.3848 10.9226 11.439C10.0255 12.4933 8.80873 13.0856 7.54 13.0856C6.27127 13.0856 5.05451 12.4933 4.15738 11.439C3.26025 10.3848 2.75625 8.95484 2.75625 7.46386C2.75625 5.97287 3.26025 4.54295 4.15738 3.48867C5.05451 2.43438 6.27127 1.84209 7.54 1.84209ZM7.54 4.78004C6.93431 4.78004 6.35343 5.0628 5.92515 5.56611C5.49686 6.06942 5.25625 6.75206 5.25625 7.46386C5.25625 8.17565 5.49686 8.85829 5.92515 9.3616C6.35343 9.86491 6.93431 10.1477 7.54 10.1477C8.14569 10.1477 8.72657 9.86491 9.15485 9.3616C9.58314 8.85829 9.82375 8.17565 9.82375 7.46386C9.82375 6.75206 9.58314 6.06942 9.15485 5.56611C8.72657 5.0628 8.14569 4.78004 7.54 4.78004ZM1.25 29.4089C0.918479 29.4089 0.600537 29.5636 0.366117 29.8391C0.131696 30.1146 0 30.4882 0 30.8778V33.8158C0 35.7638 0.65848 37.632 1.83058 39.0094C3.00269 40.3868 4.5924 41.1606 6.25 41.1606H33.75C35.4076 41.1606 36.9973 40.3868 38.1694 39.0094C39.3415 37.632 40 35.7638 40 33.8158V30.8778C40 30.4882 39.8683 30.1146 39.6339 29.8391C39.3995 29.5636 39.0815 29.4089 38.75 29.4089H1.25ZM2.5 33.8158V32.3468H37.5V33.8158C37.5 34.9846 37.1049 36.1055 36.4016 36.9319C35.6984 37.7584 34.7446 38.2227 33.75 38.2227H6.25C5.25544 38.2227 4.30161 37.7584 3.59835 36.9319C2.89509 36.1055 2.5 34.9846 2.5 33.8158Z" fill="white"/>
</svg>
