<svg width="9" height="7" viewBox="0 0 9 7" fill="none" xmlns="http://www.w3.org/2000/svg">
<path d="M7.52115 0.418397C7.23428 0.227159 6.88319 0.157708 6.54512 0.225324C6.20704 0.292939 5.90967 0.49208 5.71842 0.778943L3.75522 3.72426L2.18201 2.93715C1.8736 2.78294 1.51655 2.75756 1.18942 2.86661C0.862297 2.97565 0.591886 3.21017 0.437677 3.51859C0.283468 3.82701 0.258093 4.18406 0.367135 4.51118C0.476178 4.83831 0.710705 5.10872 1.01912 5.26293L3.61912 6.56293C3.9026 6.70477 4.22814 6.73815 4.53451 6.65679C4.84088 6.57543 5.10696 6.38493 5.28272 6.12113L7.88272 2.22113C7.97736 2.07903 8.04308 1.91967 8.07613 1.75216C8.10918 1.58465 8.10891 1.41228 8.07534 1.24487C8.04176 1.07747 7.97554 0.918319 7.88045 0.776511C7.78537 0.634703 7.66327 0.513016 7.52115 0.418397Z" fill="white"/>
</svg>
