<svg width="9" height="7" viewBox="0 0 9 7" fill="none" xmlns="http://www.w3.org/2000/svg">
<path d="M7.52115 0.518373C7.23428 0.327135 6.88319 0.257684 6.54512 0.325299C6.20704 0.392914 5.90967 0.592056 5.71842 0.878918L3.75522 3.82423L2.18201 3.03712C1.8736 2.88291 1.51655 2.85754 1.18942 2.96658C0.862297 3.07562 0.591886 3.31015 0.437677 3.61857C0.283468 3.92699 0.258093 4.28403 0.367135 4.61116C0.476178 4.93828 0.710705 5.20869 1.01912 5.3629L3.61912 6.6629C3.9026 6.80475 4.22814 6.83813 4.53451 6.75676C4.84088 6.6754 5.10696 6.48491 5.28272 6.22111L7.88272 2.32111C7.97736 2.179 8.04308 2.01964 8.07613 1.85214C8.10918 1.68463 8.10891 1.51225 8.07534 1.34485C8.04176 1.17744 7.97554 1.01829 7.88045 0.876485C7.78537 0.734677 7.66327 0.612991 7.52115 0.518373Z" fill="white"/>
</svg>
