<svg width="53" height="54" viewBox="0 0 53 54" fill="none" xmlns="http://www.w3.org/2000/svg">
<path d="M14.6666 33.6666C14.6666 33.2711 14.7839 32.8845 15.0037 32.5556C15.2234 32.2268 15.5357 31.9704 15.9011 31.8191C16.2665 31.6677 16.6686 31.6281 17.0565 31.7053C17.4445 31.7824 17.8008 31.9729 18.0805 32.2526C18.3601 32.5322 18.5506 32.8886 18.6277 33.2765C18.7049 33.6644 18.6653 34.0665 18.5139 34.4319C18.3626 34.7973 18.1063 35.1096 17.7774 35.3294C17.4486 35.5491 17.0619 35.6664 16.6664 35.6664C16.1362 35.6658 15.6279 35.455 15.253 35.0801C14.878 34.7052 14.6672 34.1968 14.6666 33.6666ZM16.6664 36.9999C14.5702 36.9999 12.7055 38.2705 12.0331 40.1615C12.0026 40.2489 11.9939 40.3424 12.0077 40.4339C12.0215 40.5254 12.0574 40.6121 12.1123 40.6866C12.1835 40.7846 12.277 40.8641 12.3851 40.9185C12.4933 40.9729 12.6129 41.0007 12.7339 40.9994H20.5999C20.721 41.0007 20.8406 40.9729 20.9487 40.9185C21.0568 40.8641 21.1503 40.7846 21.2215 40.6866C21.2765 40.6122 21.3125 40.5254 21.3263 40.4339C21.3401 40.3424 21.3313 40.2489 21.3007 40.1615C20.6243 38.2735 18.7627 36.9999 16.6664 36.9999ZM39.977 13.9655L28.9067 25.0358C30.8563 27.1405 32.2278 29.714 32.8878 32.506C33.5477 35.2979 33.4736 38.2131 32.6727 40.968L37.9539 42.726C38.7246 40.9464 40.1522 39.5329 41.9393 38.7797C43.7263 38.0266 45.7351 37.992 47.547 38.6831C49.359 39.3742 50.8344 40.7377 51.666 42.4897C52.4976 44.2416 52.6212 46.2468 52.011 48.0876C51.4009 49.9284 50.104 51.4628 48.3906 52.3712C46.6773 53.2796 44.6795 53.4919 42.8135 52.9639C40.9474 52.4359 39.3571 51.2083 38.3737 49.5369C37.3903 47.8655 37.0897 45.879 37.5345 43.9915L32.2532 42.2324C29.8594 48.5191 23.7798 53.0001 16.6664 53.0001C7.47602 53.0001 0 45.523 0 36.3337C0 29.2243 4.48094 23.1366 10.7656 20.7489L9.00656 15.4676C7.17233 15.8943 5.24421 15.5975 3.62321 14.6389C2.00222 13.6804 0.813112 12.1338 0.303205 10.321C-0.206702 8.50812 0.00183623 6.56847 0.885449 4.90543C1.76906 3.24239 3.25974 1.98397 5.04745 1.39189C6.83516 0.799806 8.7823 0.919638 10.4839 1.72646C12.1855 2.53329 13.5107 3.965 14.1837 5.72384C14.8567 7.48267 14.8258 9.43326 14.0975 11.1699C13.3691 12.9066 11.9994 14.2956 10.273 15.0482L12.0311 20.3294C14.7858 19.5287 17.7008 19.4547 20.4925 20.1146C23.2843 20.7746 25.8576 22.146 27.9622 24.0954L39.0325 13.0251C37.8225 11.5725 37.2191 9.70932 37.3478 7.82318C37.4765 5.93703 38.3274 4.17311 39.7236 2.89838C41.1197 1.62366 42.9535 0.936258 44.8436 0.979192C46.7336 1.02213 48.5344 1.79209 49.8712 3.1289C51.208 4.46571 51.9779 6.26644 52.0209 8.15649C52.0638 10.0465 51.3764 11.8804 50.1017 13.2765C48.8269 14.6726 47.063 15.5236 45.1769 15.6523C43.2907 15.781 41.4276 15.1776 39.975 13.9676L39.977 13.9655ZM22.555 39.7126C22.2518 38.8828 21.7721 38.1287 21.1488 37.5025C20.5256 36.8763 19.7738 36.393 18.9455 36.0858C19.4332 35.6287 19.7721 35.0355 19.9184 34.3833C20.0647 33.731 20.0115 33.0499 19.7657 32.4283C19.5199 31.8066 19.0929 31.2733 18.5401 30.8974C17.9873 30.5216 17.3343 30.3206 16.6659 30.3206C15.9975 30.3206 15.3445 30.5216 14.7917 30.8974C14.2389 31.2733 13.8119 31.8066 13.5661 32.4283C13.3203 33.0499 13.2671 33.731 13.4134 34.3833C13.5597 35.0355 13.8986 35.6287 14.3863 36.0858C13.558 36.393 12.8062 36.8763 12.183 37.5025C11.5597 38.1287 11.08 38.8828 10.7768 39.7126C10.673 40.001 10.641 40.3102 10.6835 40.6137C10.7259 40.9171 10.8416 41.2057 11.0205 41.4544C11.2145 41.728 11.4714 41.9509 11.7696 42.1043C12.0678 42.2577 12.3986 42.3372 12.7339 42.336H20.5999C20.9347 42.3372 21.2648 42.2581 21.5626 42.1052C21.8604 41.9523 22.1171 41.7302 22.3112 41.4575C22.4907 41.2084 22.6066 40.9193 22.6491 40.6152C22.6916 40.3112 22.6593 40.0014 22.555 39.7126Z" fill="white"/>
</svg>
