<svg width="9" height="7" viewBox="0 0 9 7" fill="none" xmlns="http://www.w3.org/2000/svg">
<path d="M7.52115 0.618346C7.23428 0.427108 6.88319 0.35766 6.54512 0.425275C6.20704 0.49289 5.90967 0.692032 5.71842 0.978894L3.75521 3.92421L2.18201 3.1371C2.0293 3.06074 1.86304 3.01521 1.69273 3.00311C1.52242 2.99101 1.3514 3.01256 1.18942 3.06655C1.02744 3.12055 0.877689 3.20591 0.748704 3.31778C0.619719 3.42965 0.514032 3.56583 0.437675 3.71854C0.361319 3.87126 0.31579 4.03751 0.303686 4.20782C0.291583 4.37813 0.313141 4.54915 0.367133 4.71113C0.421125 4.87311 0.506494 5.02286 0.618362 5.15185C0.73023 5.28083 0.866408 5.38652 1.01912 5.46288L3.61912 6.76288C3.9026 6.90472 4.22814 6.9381 4.53451 6.85674C4.84088 6.77538 5.10696 6.58488 5.28271 6.32108L7.88272 2.42108C7.97736 2.27897 8.04308 2.11962 8.07613 1.95211C8.10918 1.78461 8.10891 1.61223 8.07534 1.44482C8.04176 1.27742 7.97554 1.11827 7.88045 0.976461C7.78536 0.834653 7.66327 0.712964 7.52115 0.618346Z" fill="white"/>
</svg>
